<svg width="475" height="394" viewBox="0 0 475 394" fill="none" xmlns="http://www.w3.org/2000/svg">
<path d="M187.678 192.198L188.512 189.721L187.678 192.198ZM52.4313 362.425C53.7706 362.963 55.2926 362.314 55.8309 360.975L64.6022 339.15C65.1405 337.811 64.4911 336.289 63.1519 335.75C61.8126 335.212 60.2905 335.861 59.7523 337.201L51.9555 356.601L32.5556 348.804C31.2163 348.266 29.6942 348.915 29.156 350.254C28.6177 351.594 29.2671 353.116 30.6064 353.654L52.4313 362.425ZM358.994 133.894L356.442 134.455L356.493 134.689L356.586 134.91L358.994 133.894ZM188.512 189.721C148.98 176.406 117.649 173.607 93.5786 178.816C69.4064 184.046 52.7072 197.328 42.5832 215.739C32.5085 234.061 29.0394 257.276 30.8427 282.365C32.6477 307.475 39.7445 334.639 51.002 361.026L55.8097 358.975C44.7372 333.022 37.8127 306.425 36.0563 281.99C34.2983 257.533 37.728 235.417 47.1634 218.258C56.5496 201.188 71.972 188.839 94.6841 183.925C117.498 178.988 147.814 181.529 186.843 194.675L188.512 189.721ZM253.85 36.7127C266.99 35.8165 279.927 41.0823 292.105 49.8757C304.274 58.6624 315.467 70.8178 325.024 83.2749C334.57 95.7169 342.414 108.366 347.905 118.057C350.649 122.901 352.799 126.995 354.275 129.942C355.014 131.417 355.58 132.597 355.966 133.434C356.159 133.855 356.301 134.177 356.395 134.401C356.532 134.727 356.487 134.661 356.442 134.455L361.547 133.334C361.469 132.98 361.297 132.573 361.215 132.378C361.09 132.08 360.921 131.7 360.714 131.25C360.299 130.347 359.706 129.113 358.949 127.601C357.433 124.574 355.24 120.402 352.452 115.481C346.88 105.645 338.905 92.7795 329.171 80.0932C319.45 67.422 307.902 54.835 295.165 45.6379C282.437 36.4474 268.301 30.488 253.495 31.4978L253.85 36.7127ZM356.586 134.91C363.992 152.472 365.118 167.149 361.082 178.625C357.071 190.026 347.788 198.763 333.283 204.15C304.055 215.005 254.399 211.914 188.512 189.721L186.843 194.675C253.02 216.965 304.133 220.552 335.103 209.05C350.696 203.259 361.369 193.559 366.012 180.359C370.629 167.234 369.107 151.148 361.402 132.879L356.586 134.91Z" fill="#B1A2DA"/>
<path d="M510 124.038C440.038 187.042 293.659 157.421 254.552 124.038C213.515 89.0078 203.711 36.2344 254.551 34.0002" stroke="#B1A2DA" stroke-width="5.22702"/>
</svg>
