<svg width="24" height="23" viewBox="0 0 24 23" fill="none" xmlns="http://www.w3.org/2000/svg">
<path d="M10.3019 15.9714C10.2179 15.9738 10.1344 15.9578 10.0572 15.9247C9.97999 15.8916 9.91088 15.8422 9.85466 15.7797C9.79412 15.722 9.74592 15.6527 9.71299 15.5758C9.68007 15.4989 9.66309 15.4162 9.66309 15.3325C9.66309 15.2489 9.68007 15.1661 9.71299 15.0893C9.74592 15.0124 9.79412 14.943 9.85466 14.8853L13.2408 11.4992L9.85466 8.11308C9.73802 7.99406 9.67306 7.83382 9.67391 7.66718C9.67475 7.50054 9.74132 7.34096 9.85915 7.22313C9.97699 7.10529 10.1366 7.03872 10.3032 7.03788C10.4698 7.03704 10.6301 7.10199 10.7491 7.21863L14.5824 11.052C14.643 11.1097 14.6912 11.1791 14.7241 11.2559C14.757 11.3328 14.774 11.4156 14.774 11.4992C14.774 11.5828 14.757 11.6656 14.7241 11.7425C14.6912 11.8193 14.643 11.8887 14.5824 11.9464L10.7491 15.7797C10.6929 15.8422 10.6238 15.8916 10.5466 15.9247C10.4693 15.9578 10.3859 15.9738 10.3019 15.9714Z" fill="white" stroke="white" stroke-width="1.15408"/>
<circle cx="12.2189" cy="11.5" r="10.3459" stroke="white" stroke-width="2.30815"/>
</svg>
