<svg width="179" height="24" viewBox="0 0 179 24" fill="none" xmlns="http://www.w3.org/2000/svg">
<path d="M13.9731 12.0812C13.9731 12.5759 13.9649 12.9139 13.9484 13.0952H3.46237C3.64373 14.101 4.0724 14.8759 4.74839 15.42C5.44086 15.964 6.33943 16.2361 7.44409 16.2361C9.12581 16.2361 10.4283 15.659 11.3516 14.5049L13.5032 16.335C12.1677 18.1816 10.0656 19.1049 7.19678 19.1049C4.95448 19.1049 3.19032 18.4701 1.9043 17.2006C0.634767 15.9311 0 14.2081 0 12.0318C0 9.9049 0.651254 8.19845 1.95376 6.91243C3.25627 5.60992 4.94624 4.95866 7.02366 4.95866C9.28244 4.95866 11.0054 5.60992 12.1925 6.91243C13.3796 8.19845 13.9731 9.92139 13.9731 12.0812ZM7.02366 7.80275C6.11685 7.80275 5.35018 8.04182 4.72366 8.51996C4.09713 8.9816 3.68495 9.68232 3.4871 10.6221H10.6344C10.519 9.81422 10.1645 9.14648 9.57097 8.61888C8.97742 8.07479 8.12832 7.80275 7.02366 7.80275Z" fill="black"/>
<path d="M29.0591 18.8329H25.1022L21.8871 14.406L18.672 18.8329H14.7645L19.7108 11.9081L14.8387 5.32963H18.8452L21.8871 9.5834L24.9785 5.32963H28.9849L24.1376 11.8587L29.0591 18.8329Z" fill="black"/>
<path d="M30.8831 23.1855V5.32963H34.2465V6.492C35.2522 5.50275 36.6372 5.00813 38.4013 5.00813C40.3139 5.00813 41.8472 5.65114 43.0013 6.93716C44.172 8.20669 44.7573 9.91315 44.7573 12.0565C44.7573 14.2164 44.1637 15.9393 42.9766 17.2253C41.806 18.4949 40.2315 19.1296 38.253 19.1296C36.4723 19.1296 35.1368 18.5938 34.2465 17.5221V23.1855H30.8831ZM37.511 16.063C38.6487 16.063 39.5555 15.7085 40.2315 14.9995C40.9074 14.2741 41.2454 13.2931 41.2454 12.0565C41.2454 10.8035 40.9074 9.83071 40.2315 9.13824C39.572 8.42927 38.6899 8.07479 37.5852 8.07479C36.9092 8.07479 36.258 8.23143 35.6315 8.54469C35.0049 8.84146 34.5268 9.26189 34.197 9.80598V14.2823C34.873 15.4694 35.9777 16.063 37.511 16.063Z" fill="black"/>
<path d="M47.3061 18.8329V5.32963H50.5954V7.08555C51.6341 5.71709 53.0355 5.03286 54.7997 5.03286C55.2119 5.03286 55.5251 5.07408 55.7395 5.15651V8.84146C55.1129 8.67659 54.5688 8.59415 54.1072 8.59415C53.1015 8.59415 52.2853 8.9239 51.6588 9.5834C51.0323 10.2429 50.719 11.1992 50.719 12.4522V18.8329H47.3061Z" fill="black"/>
<path d="M70.85 12.0812C70.85 12.5759 70.8418 12.9139 70.8253 13.0952H60.3393C60.5206 14.101 60.9493 14.8759 61.6253 15.42C62.3178 15.964 63.2163 16.2361 64.321 16.2361C66.0027 16.2361 67.3052 15.659 68.2285 14.5049L70.3801 16.335C69.0446 18.1816 66.9425 19.1049 64.0737 19.1049C61.8314 19.1049 60.0672 18.4701 58.7812 17.2006C57.5117 15.9311 56.8769 14.2081 56.8769 12.0318C56.8769 9.9049 57.5281 8.19845 58.8307 6.91243C60.1332 5.60992 61.8231 4.95866 63.9006 4.95866C66.1593 4.95866 67.8823 5.60992 69.0694 6.91243C70.2565 8.19845 70.85 9.92139 70.85 12.0812ZM63.9006 7.80275C62.9937 7.80275 62.2271 8.04182 61.6006 8.51996C60.974 8.9816 60.5618 9.68232 60.364 10.6221H67.5113C67.3959 9.81422 67.0414 9.14648 66.4479 8.61888C65.8543 8.07479 65.0052 7.80275 63.9006 7.80275Z" fill="black"/>
<path d="M77.9726 19.1791C75.8457 19.1791 73.9414 18.7834 72.2597 17.992L73.3479 15.2963C74.6833 16.1042 76.192 16.5081 77.8737 16.5081C79.44 16.5081 80.2231 16.03 80.2231 15.0737C80.2231 14.678 80.017 14.373 79.6049 14.1587C79.1927 13.9443 78.4013 13.7053 77.2307 13.4415C75.5984 13.0787 74.3866 12.5841 73.5952 11.9576C72.8203 11.3311 72.4328 10.416 72.4328 9.21243C72.4328 7.86046 72.9109 6.82999 73.8672 6.12103C74.84 5.41207 76.159 5.05759 77.8242 5.05759C79.5389 5.05759 81.3031 5.41207 83.1167 6.12103L82.0038 8.84146C80.7013 8.14899 79.2998 7.80275 77.7995 7.80275C76.4805 7.80275 75.821 8.19021 75.821 8.96512C75.821 9.3773 76.0106 9.69056 76.3898 9.9049C76.7855 10.1192 77.5687 10.3666 78.7393 10.6468C80.4375 11.059 81.6823 11.5701 82.4737 12.1802C83.2816 12.7737 83.6855 13.6311 83.6855 14.7522C83.6855 17.7035 81.7812 19.1791 77.9726 19.1791Z" fill="black"/>
<path d="M91.0627 19.1791C88.9359 19.1791 87.0315 18.7834 85.3498 17.992L86.438 15.2963C87.7735 16.1042 89.2821 16.5081 90.9638 16.5081C92.5301 16.5081 93.3133 16.03 93.3133 15.0737C93.3133 14.678 93.1072 14.373 92.695 14.1587C92.2828 13.9443 91.4914 13.7053 90.3208 13.4415C88.6885 13.0787 87.4767 12.5841 86.6853 11.9576C85.9104 11.3311 85.523 10.416 85.523 9.21243C85.523 7.86046 86.0011 6.82999 86.9574 6.12103C87.9301 5.41207 89.2491 5.05759 90.9144 5.05759C92.6291 5.05759 94.3932 5.41207 96.2068 6.12103L95.0939 8.84146C93.7914 8.14899 92.39 7.80275 90.8896 7.80275C89.5706 7.80275 88.9111 8.19021 88.9111 8.96512C88.9111 9.3773 89.1007 9.69056 89.4799 9.9049C89.8756 10.1192 90.6588 10.3666 91.8294 10.6468C93.5276 11.059 94.7724 11.5701 95.5638 12.1802C96.3717 12.7737 96.7756 13.6311 96.7756 14.7522C96.7756 17.7035 94.8713 19.1791 91.0627 19.1791Z" fill="black"/>
<path d="M99.6518 23.1608V5.52748H100.987V7.25867C102.158 5.95616 103.798 5.3049 105.909 5.3049C107.854 5.3049 109.437 5.92318 110.657 7.15974C111.894 8.37981 112.512 10.0368 112.512 12.1307C112.512 14.2411 111.902 15.9228 110.682 17.1759C109.478 18.4124 107.863 19.0307 105.835 19.0307C103.757 19.0307 102.141 18.3547 100.987 17.0028V23.1608H99.6518ZM105.736 17.72C107.351 17.72 108.646 17.2171 109.618 16.2114C110.608 15.2056 111.102 13.8454 111.102 12.1307C111.102 10.4325 110.599 9.08877 109.594 8.09953C108.604 7.11028 107.327 6.61565 105.76 6.61565C104.837 6.61565 103.947 6.8135 103.089 7.2092C102.232 7.6049 101.531 8.19021 100.987 8.96512V15.3458C101.498 16.1372 102.183 16.7307 103.04 17.1264C103.897 17.5221 104.796 17.72 105.736 17.72Z" fill="black"/>
<path d="M117.271 3.20275C117.056 3.43358 116.784 3.54899 116.455 3.54899C116.125 3.54899 115.844 3.43358 115.614 3.20275C115.383 2.97193 115.267 2.69988 115.267 2.38662C115.267 2.05687 115.383 1.78483 115.614 1.57049C115.844 1.33967 116.125 1.22426 116.455 1.22426C116.784 1.22426 117.056 1.33967 117.271 1.57049C117.501 1.78483 117.617 2.05687 117.617 2.38662C117.617 2.69988 117.501 2.97193 117.271 3.20275ZM115.737 18.8329V5.52748H117.122V18.8329H115.737Z" fill="black"/>
<path d="M127.329 19.0307C125.186 19.0307 123.479 18.4042 122.21 17.1511C120.94 15.8981 120.305 14.2329 120.305 12.1554C120.305 10.0945 120.965 8.43752 122.284 7.18447C123.619 5.93142 125.342 5.3049 127.453 5.3049C128.508 5.3049 129.505 5.51924 130.445 5.94791C131.385 6.3601 132.143 6.92067 132.72 7.62963L131.756 8.56942C131.278 7.97587 130.651 7.50598 129.876 7.15974C129.101 6.79702 128.293 6.61565 127.453 6.61565C125.754 6.61565 124.369 7.12677 123.298 8.14899C122.243 9.15472 121.715 10.4902 121.715 12.1554C121.715 13.8372 122.226 15.1891 123.248 16.2114C124.287 17.2171 125.647 17.72 127.329 17.72C128.252 17.72 129.118 17.5386 129.926 17.1759C130.734 16.8131 131.385 16.3268 131.879 15.7167L132.844 16.6565C132.25 17.382 131.459 17.959 130.47 18.3877C129.481 18.8164 128.434 19.0307 127.329 19.0307Z" fill="black"/>
<path d="M146.365 18.8329L141.74 11.5619L137.214 16.1124V18.8329H135.879V0.185547H137.214V14.3071L145.746 5.52748H147.601L142.729 10.5232L148.022 18.8329H146.365Z" fill="black"/>
<path d="M155.582 19.0307C153.801 19.0307 152.474 18.5691 151.6 17.6458C150.726 16.706 150.289 15.2304 150.289 13.2189V5.52748H151.625V13.12C151.625 14.7192 151.971 15.8898 152.664 16.6318C153.356 17.3737 154.403 17.7447 155.805 17.7447C157.536 17.7447 159.11 17.0192 160.528 15.5683V5.52748H161.864V18.8329H160.528V17.0275C159.044 18.363 157.396 19.0307 155.582 19.0307Z" fill="black"/>
<path d="M165.706 23.1608V5.52748H167.042V7.25867C168.212 5.95616 169.853 5.3049 171.963 5.3049C173.909 5.3049 175.492 5.92318 176.712 7.15974C177.948 8.37981 178.566 10.0368 178.566 12.1307C178.566 14.2411 177.956 15.9228 176.736 17.1759C175.533 18.4124 173.917 19.0307 171.889 19.0307C169.812 19.0307 168.196 18.3547 167.042 17.0028V23.1608H165.706ZM171.79 17.72C173.406 17.72 174.7 17.2171 175.673 16.2114C176.662 15.2056 177.157 13.8454 177.157 12.1307C177.157 10.4325 176.654 9.08877 175.648 8.09953C174.659 7.11028 173.381 6.61565 171.815 6.61565C170.892 6.61565 170.001 6.8135 169.144 7.2092C168.287 7.6049 167.586 8.19021 167.042 8.96512V15.3458C167.553 16.1372 168.237 16.7307 169.094 17.1264C169.952 17.5221 170.85 17.72 171.79 17.72Z" fill="black"/>
</svg>
