<svg width="199" height="23" viewBox="0 0 199 23" fill="none" xmlns="http://www.w3.org/2000/svg">
<path d="M1.93657 16.7703V11.2513H9.96285V9.54583H1.93657V3.52935H11.4094V1.80021H0V18.4995H11.8994V16.7703H1.93657Z" fill="black"/>
<path d="M20.5686 13.62L24.6051 18.4995H26.7983L21.6886 12.033L26.7516 5.68486H24.5118L20.5686 10.5644L16.6255 5.68486H14.3856L19.4487 12.033L14.3622 18.4995H16.5088L20.5686 13.62Z" fill="black"/>
<path d="M36.108 5.44799C34.4048 5.44799 32.9349 5.92173 31.7449 6.84552V5.68486H29.8083V22.6447H31.7449V17.2915C32.9815 18.1916 34.4515 18.6416 36.108 18.6416C37.928 18.6416 39.4679 18.0021 40.7278 16.7467C41.9878 15.4912 42.6177 13.9279 42.6177 12.033C42.6177 10.1617 41.9878 8.57467 40.7278 7.31926C39.4679 6.06385 37.928 5.44799 36.108 5.44799ZM35.8281 16.8888C34.1248 16.8888 32.7715 16.3913 31.7449 15.3965V8.74047C32.7949 7.72194 34.1481 7.20082 35.8281 7.20082C37.2047 7.20082 38.3479 7.67456 39.2812 8.59835C40.2145 9.52214 40.6812 10.6828 40.6812 12.033C40.6812 13.4068 40.2145 14.5675 39.2812 15.4912C38.3479 16.415 37.2047 16.8888 35.8281 16.8888Z" fill="black"/>
<path d="M48.1212 5.68486H46.1846V18.4995H48.1212V12.0093C48.1212 10.7302 48.4712 9.64058 49.1478 8.71679C49.8245 7.81668 50.7344 7.36663 51.8777 7.36663C52.4377 7.36663 53.0443 7.48507 53.6743 7.74562L53.8143 5.82698C53.301 5.56643 52.7877 5.44799 52.2743 5.44799C51.3177 5.47168 50.5011 5.70855 49.8011 6.20597C49.0778 6.7034 48.5179 7.36663 48.1212 8.19567V5.68486Z" fill="black"/>
<path d="M68.579 12.6725L68.6023 12.1514C68.6023 10.1617 68.0424 8.55098 66.9457 7.29557C65.8491 6.06385 64.3559 5.44799 62.4893 5.44799C60.6227 5.44799 59.0828 6.08754 57.8928 7.36663C56.6796 8.64573 56.0729 10.2091 56.0729 12.0566C56.0729 13.9042 56.6796 15.4676 57.8928 16.723C59.0828 18.0021 60.6227 18.6416 62.4893 18.6416C63.6792 18.6416 64.7759 18.4047 65.7558 17.9547C66.7358 17.5046 67.5291 16.8651 68.1124 16.0834L66.8291 15.0412C65.8258 16.2966 64.4725 16.9125 62.8159 16.9125C61.626 16.9125 60.5527 16.5098 59.6428 15.7044C58.7095 14.9228 58.1728 13.9042 58.0095 12.6725H68.579ZM62.4893 7.0587C63.7726 7.0587 64.7758 7.43769 65.4992 8.17199C66.2225 8.92997 66.6191 9.92482 66.7124 11.1329H58.0328C58.1962 9.97219 58.6861 9.00103 59.5028 8.21936C60.3194 7.43769 61.2994 7.0587 62.4893 7.0587Z" fill="black"/>
<path d="M71.3544 17.4573C73.1044 18.2389 74.8776 18.6416 76.6742 18.6416C78.3308 18.6416 79.5674 18.2863 80.4307 17.5757C81.2706 16.8651 81.6906 15.9413 81.6906 14.828C81.6906 13.7858 81.294 12.9804 80.4773 12.4119C79.6607 11.8435 78.4708 11.3934 76.8842 11.0855C75.6242 10.8249 74.7143 10.5407 74.1776 10.2327C73.6177 9.92482 73.3377 9.52214 73.3377 8.97734C73.3377 8.40886 73.6177 7.93512 74.1543 7.57981C74.6909 7.22451 75.3676 7.0587 76.2309 7.0587C77.7241 7.0587 79.1007 7.34295 80.384 7.91143L81.0373 6.44284C79.4274 5.77961 77.8408 5.44799 76.2775 5.44799C74.9009 5.44799 73.781 5.77961 72.9177 6.46653C72.0311 7.15345 71.5878 8.00618 71.5878 9.07209C71.5878 10.0906 71.9844 10.8486 72.801 11.3934C73.6177 11.9382 74.7843 12.3883 76.3242 12.7199C77.5608 12.9804 78.4708 13.2647 79.0541 13.5726C79.614 13.8805 79.894 14.3306 79.894 14.9228C79.894 15.5149 79.6374 16.036 79.1241 16.4387C78.6108 16.8414 77.8175 17.0546 76.7208 17.0546C75.3909 17.0546 73.8277 16.6993 72.0777 15.9887L71.3544 17.4573Z" fill="black"/>
<path d="M84.1762 17.4573C85.9261 18.2389 87.6994 18.6416 89.496 18.6416C91.1525 18.6416 92.3892 18.2863 93.2524 17.5757C94.0924 16.8651 94.5124 15.9413 94.5124 14.828C94.5124 13.7858 94.1157 12.9804 93.2991 12.4119C92.4825 11.8435 91.2925 11.3934 89.7059 11.0855C88.446 10.8249 87.5361 10.5407 86.9994 10.2327C86.4394 9.92482 86.1595 9.52214 86.1595 8.97734C86.1595 8.40886 86.4394 7.93512 86.9761 7.57981C87.5127 7.22451 88.1894 7.0587 89.0527 7.0587C90.5459 7.0587 91.9225 7.34295 93.2058 7.91143L93.8591 6.44284C92.2492 5.77961 90.6626 5.44799 89.0993 5.44799C87.7227 5.44799 86.6028 5.77961 85.7395 6.46653C84.8528 7.15345 84.4095 8.00618 84.4095 9.07209C84.4095 10.0906 84.8062 10.8486 85.6228 11.3934C86.4394 11.9382 87.6061 12.3883 89.146 12.7199C90.3826 12.9804 91.2925 13.2647 91.8758 13.5726C92.4358 13.8805 92.7158 14.3306 92.7158 14.9228C92.7158 15.5149 92.4591 16.036 91.9458 16.4387C91.4325 16.8414 90.6392 17.0546 89.5426 17.0546C88.2127 17.0546 86.6494 16.6993 84.8995 15.9887L84.1762 17.4573Z" fill="black"/>
<path d="M113.022 10.1617C113.022 7.86406 112.205 5.87436 110.595 4.23996C108.985 2.60556 107.025 1.80021 104.739 1.80021H97.7625V18.4995H105.275C107.399 18.4995 109.242 17.6704 110.759 16.0124C112.275 14.3543 113.022 12.4119 113.022 10.1617ZM101.776 14.7096V5.59011H104.739C105.905 5.59011 106.909 6.04016 107.725 6.91658C108.542 7.81668 108.939 8.90628 108.939 10.1617C108.939 11.3934 108.542 12.4593 107.772 13.3594C106.979 14.2595 106.022 14.7096 104.925 14.7096H101.776Z" fill="black"/>
<path d="M128.112 13.1936L128.135 12.3172C128.135 10.2564 127.598 8.57467 126.502 7.29557C125.405 6.01648 123.889 5.37693 121.952 5.37693C120.062 5.37693 118.499 6.01648 117.262 7.29557C116.026 8.59835 115.419 10.1854 115.419 12.0566C115.419 13.9279 116.026 15.5149 117.262 16.794C118.499 18.0731 120.062 18.7127 121.952 18.7127C123.189 18.7127 124.332 18.4758 125.335 17.9784C126.338 17.5046 127.132 16.8414 127.715 15.9887L125.195 13.8805C124.892 14.3306 124.472 14.7096 123.935 14.9938C123.399 15.3018 122.885 15.4439 122.372 15.4439C121.672 15.4439 121.065 15.2544 120.552 14.8517C120.039 14.4727 119.665 13.9279 119.432 13.1936H128.112ZM119.432 10.8249C119.595 10.1617 119.899 9.61689 120.342 9.19052C120.785 8.76416 121.322 8.55098 121.952 8.55098C122.815 8.55098 123.445 8.78785 123.795 9.2379C124.145 9.71164 124.332 10.2328 124.332 10.8249H119.432Z" fill="black"/>
<path d="M130.921 18.4995H134.957V0.639547H130.921V18.4995Z" fill="black"/>
<path d="M138.411 18.4995H142.425V5.6138H138.411V18.4995ZM140.395 4.59526C141.025 4.59526 141.538 4.38208 141.981 3.93203C142.401 3.48198 142.611 2.93718 142.611 2.29763C142.611 1.65808 142.401 1.11328 141.981 0.663234C141.538 0.213182 141.025 0 140.395 0C139.788 0 139.275 0.213182 138.831 0.663234C138.388 1.11328 138.155 1.65808 138.155 2.29763C138.155 2.93718 138.388 3.45829 138.831 3.90834C139.275 4.35839 139.788 4.59526 140.395 4.59526Z" fill="black"/>
<path d="M154.581 5.6138L151.804 11.6777L149.005 5.6138H144.805L150.871 18.4995H152.738L158.781 5.6138H154.581Z" fill="black"/>
<path d="M172.426 13.1936L172.45 12.3172C172.45 10.2564 171.913 8.57467 170.817 7.29557C169.72 6.01648 168.203 5.37693 166.267 5.37693C164.377 5.37693 162.814 6.01648 161.577 7.29557C160.34 8.59835 159.734 10.1854 159.734 12.0566C159.734 13.9279 160.34 15.5149 161.577 16.794C162.814 18.0731 164.377 18.7127 166.267 18.7127C167.503 18.7127 168.647 18.4758 169.65 17.9784C170.653 17.5046 171.447 16.8414 172.03 15.9887L169.51 13.8805C169.207 14.3306 168.787 14.7096 168.25 14.9938C167.713 15.3018 167.2 15.4439 166.687 15.4439C165.987 15.4439 165.38 15.2544 164.867 14.8517C164.354 14.4727 163.98 13.9279 163.747 13.1936H172.426ZM163.747 10.8249C163.91 10.1617 164.214 9.61689 164.657 9.19052C165.1 8.76416 165.637 8.55098 166.267 8.55098C167.13 8.55098 167.76 8.78785 168.11 9.2379C168.46 9.71164 168.647 10.2328 168.647 10.8249H163.747Z" fill="black"/>
<path d="M179.202 5.6138H175.189V18.4995H179.202V12.4593C179.295 10.6117 180.275 9.68795 182.119 9.68795C182.515 9.68795 182.959 9.73532 183.472 9.83007V5.40062C183.402 5.37693 183.262 5.37693 183.099 5.37693C181.489 5.40062 180.205 5.94542 179.202 7.03502V5.6138Z" fill="black"/>
<path d="M194.894 5.6138L192.07 13.4305H191.954L189.294 5.6138H185.071L189.784 18.6179C189.2 19.4943 188.104 19.9444 186.471 19.9444H186.097L185.561 22.9526C185.957 22.9763 186.681 23 187.731 23C189.037 22.9763 190.274 22.6447 191.417 21.9815C192.56 21.3182 193.354 20.3944 193.797 19.1864L199 5.6138H194.894Z" fill="black"/>
</svg>
