<svg width="252" height="27" viewBox="0 0 252 27" fill="none" xmlns="http://www.w3.org/2000/svg">
<path d="M0 22.3131H4.97597V0.625977H0V22.3131Z" fill="#FF882D"/>
<path d="M16.7123 6.37854C14.325 6.37854 12.3116 7.15513 10.6434 8.73709C8.94636 10.319 8.11224 12.2174 8.11224 14.4896C8.11224 16.7331 8.94636 18.6315 10.6434 20.2134C12.3116 21.7954 14.325 22.572 16.7123 22.572C19.0709 22.572 21.0843 21.7954 22.7813 20.2134C24.4495 18.6315 25.2836 16.7331 25.2836 14.4896C25.2836 12.2462 24.4495 10.319 22.7813 8.73709C21.0843 7.15513 19.0709 6.37854 16.7123 6.37854ZM16.7123 18.2001C15.6769 18.2001 14.7852 17.8261 14.0661 17.1071C13.3471 16.388 12.9732 15.4963 12.9732 14.4896C12.9732 13.4542 13.3471 12.5625 14.0661 11.8435C14.7852 11.1244 15.6769 10.7505 16.7123 10.7505C17.719 10.7505 18.6107 11.1244 19.3297 11.8435C20.0488 12.5625 20.4227 13.4542 20.4227 14.4896C20.4227 15.4963 20.0488 16.388 19.3297 17.1071C18.6107 17.8261 17.719 18.2001 16.7123 18.2001Z" fill="#FF882D"/>
<path d="M39.325 16.4168C38.6347 17.596 37.628 18.2001 36.2762 18.2001C35.2407 18.2001 34.3491 17.8261 33.63 17.1071C32.9109 16.388 32.537 15.4963 32.537 14.4896C32.537 13.4542 32.9109 12.5625 33.63 11.8435C34.3491 11.1244 35.2407 10.7505 36.2762 10.7505C37.628 10.7505 38.6347 11.3545 39.325 12.5338L42.489 9.59997C41.7699 8.59327 40.8495 7.81668 39.7853 7.24142C38.721 6.66617 37.5418 6.37854 36.2762 6.37854C33.8889 6.37854 31.8755 7.15513 30.2072 8.73709C28.5102 10.319 27.6761 12.2174 27.6761 14.4896C27.6761 16.7331 28.5102 18.6315 30.2072 20.2134C31.8755 21.7954 33.8889 22.572 36.2762 22.572C37.513 22.572 38.6635 22.2844 39.7565 21.6804C40.8207 21.1051 41.7124 20.2997 42.4314 19.293L39.325 16.4168Z" fill="#FF882D"/>
<path d="M55.5844 12.8214L61.078 6.66617H55.3542L50.3208 12.0736V0.625977H45.3736V22.3131H50.3208V18.7178L52.3342 16.6756L55.7282 22.3131H61.1931L55.5844 12.8214Z" fill="#FF882D"/>
<path d="M77.4223 15.8703L77.451 14.806C77.451 12.3037 76.7895 10.2615 75.4377 8.70832C74.0858 7.15513 72.2162 6.37854 69.8289 6.37854C67.4991 6.37854 65.572 7.15513 64.0476 8.70832C62.5231 10.2903 61.7753 12.2174 61.7753 14.4896C61.7753 16.7619 62.5231 18.689 64.0476 20.2422C65.572 21.7954 67.4991 22.572 69.8289 22.572C71.3533 22.572 72.7627 22.2844 73.9995 21.6804C75.2363 21.1051 76.2142 20.2997 76.9333 19.2643L73.8269 16.7044C73.453 17.2509 72.9353 17.7111 72.2737 18.0562C71.6122 18.4302 70.9794 18.6027 70.3466 18.6027C69.4837 18.6027 68.7359 18.3726 68.1031 17.8837C67.4704 17.4235 67.0101 16.7619 66.7225 15.8703H77.4223ZM66.7225 12.994C66.9239 12.1886 67.2978 11.5271 67.8443 11.0093C68.3908 10.4916 69.0523 10.2328 69.8289 10.2328C70.8931 10.2328 71.6697 10.5204 72.1012 11.0669C72.5326 11.6421 72.7627 12.2749 72.7627 12.994H66.7225Z" fill="#FF882D"/>
<path d="M85.4873 6.66617H80.5401V22.3131H85.4873V14.9786C85.6024 12.7351 86.8104 11.6134 89.0827 11.6134C89.5717 11.6134 90.1181 11.6709 90.7509 11.7859V6.4073C90.6646 6.37854 90.4921 6.37854 90.2907 6.37854C88.3061 6.4073 86.7241 7.06884 85.4873 8.39193V6.66617Z" fill="#FF882D"/>
<path d="M104.205 6.91319C102.257 6.91319 100.576 7.44762 99.2148 8.48976V7.18041H97V26.313H99.2148V20.2739C100.629 21.2894 102.31 21.7971 104.205 21.7971C106.286 21.7971 108.047 21.0756 109.488 19.6593C110.929 18.2431 111.65 16.4795 111.65 14.3418C111.65 12.2308 110.929 10.4404 109.488 9.02419C108.047 7.60795 106.286 6.91319 104.205 6.91319ZM103.885 19.8197C101.937 19.8197 100.389 19.2585 99.2148 18.1362V10.6275C100.416 9.47846 101.963 8.89058 103.885 8.89058C105.459 8.89058 106.767 9.42501 107.834 10.4672C108.901 11.5093 109.435 12.8186 109.435 14.3418C109.435 15.8916 108.901 17.201 107.834 18.2431C106.767 19.2852 105.459 19.8197 103.885 19.8197Z" fill="#260661"/>
<path d="M114.715 21.6367H116.93V7.18041H114.715V21.6367ZM115.836 4.77547C116.209 4.77547 116.53 4.64187 116.797 4.37465C117.063 4.10744 117.197 3.78678 117.197 3.38596C117.197 2.98514 117.063 2.66448 116.797 2.39726C116.53 2.15677 116.209 2.02316 115.836 2.02316C115.436 2.02316 115.115 2.15677 114.849 2.39726C114.555 2.66448 114.422 2.98514 114.422 3.38596C114.422 3.78678 114.555 4.10744 114.849 4.37465C115.115 4.64187 115.436 4.77547 115.836 4.77547Z" fill="#260661"/>
<path d="M131.773 17.7888C130.732 19.1516 129.425 19.8197 127.824 19.8197C126.249 19.8197 124.915 19.2852 123.821 18.2164C122.7 17.1475 122.14 15.8649 122.14 14.3685C122.14 12.8454 122.7 11.5627 123.821 10.4939C124.915 9.42501 126.249 8.89058 127.824 8.89058C129.425 8.89058 130.732 9.55862 131.773 10.868L133.24 9.5319C131.853 7.795 130.038 6.91319 127.824 6.91319C125.662 6.91319 123.794 7.63467 122.273 9.07763C120.725 10.5473 119.952 12.3109 119.952 14.3685C119.952 16.426 120.725 18.1629 122.273 19.6059C123.794 21.0756 125.662 21.7971 127.824 21.7971C130.012 21.7971 131.799 20.9152 133.214 19.1249L131.773 17.7888Z" fill="#260661"/>
<path d="M144.235 12.7385L149.812 7.18041H147.09L138.311 15.7046V1.48873H136.096V21.6367H138.311V18.6172L142.74 14.4219L147.33 21.6367H149.838L144.235 12.7385Z" fill="#260661"/>
<path d="M162.77 7.18041V18.1897C161.516 19.2852 159.968 19.8197 158.127 19.8197C156.819 19.8197 155.752 19.4188 154.978 18.6439C154.178 17.869 153.777 16.7467 153.777 15.277V7.18041H151.589V15.277C151.589 17.4415 152.123 19.0715 153.217 20.167C154.284 21.2626 155.805 21.7971 157.78 21.7971C159.808 21.7971 161.462 21.2359 162.77 20.1403V21.6367H164.985V7.18041H162.77Z" fill="#260661"/>
<path d="M175.966 6.91319C174.018 6.91319 172.337 7.44762 170.976 8.48976V7.18041H168.761V26.313H170.976V20.2739C172.391 21.2894 174.072 21.7971 175.966 21.7971C178.048 21.7971 179.809 21.0756 181.25 19.6593C182.691 18.2431 183.411 16.4795 183.411 14.3418C183.411 12.2308 182.691 10.4404 181.25 9.02419C179.809 7.60795 178.048 6.91319 175.966 6.91319ZM175.646 19.8197C173.698 19.8197 172.15 19.2585 170.976 18.1362V10.6275C172.177 9.47846 173.725 8.89058 175.646 8.89058C177.22 8.89058 178.528 9.42501 179.595 10.4672C180.663 11.5093 181.196 12.8186 181.196 14.3418C181.196 15.8916 180.663 17.201 179.595 18.2431C178.528 19.2852 177.22 19.8197 175.646 19.8197Z" fill="#260661"/>
<path d="M198.038 19.6861C198.625 19.2318 199.426 18.7241 200.466 18.1629C201.48 17.6018 202.388 17.0941 203.188 16.6398C203.962 16.1855 204.763 15.6244 205.536 14.9831C206.31 14.3685 206.897 13.5936 207.351 12.685C207.778 11.8032 207.991 10.7878 207.991 9.63878C207.991 7.68812 207.298 6.03138 205.91 4.66859C204.496 3.30579 202.868 2.63776 200.973 2.63776C199.052 2.63776 197.398 3.30579 196.037 4.64187C194.649 5.97794 193.955 7.63467 193.955 9.61206V10.0396H195.983V9.74567C196.01 8.27599 196.517 7.0468 197.504 6.11155C198.492 5.1763 199.639 4.72203 200.947 4.72203C202.281 4.72203 203.428 5.20302 204.416 6.19171C205.403 7.18041 205.883 8.35615 205.883 9.77239C205.883 10.8145 205.617 11.6963 205.083 12.4713C204.522 13.2462 203.802 13.9142 202.868 14.4754C201.934 15.0365 200.973 15.5977 199.986 16.1054C198.972 16.6131 197.905 17.2811 196.784 18.0561C195.637 18.8577 194.703 19.7395 193.955 20.7015V21.6367H208.071V19.6861H198.038Z" fill="#260661"/>
<path d="M222.491 14.9296V2.79809H220.757L209.549 15.7847L210.003 16.8536H220.25V21.6367H222.491V16.8536H225.346V14.9296H222.491ZM212.805 14.9296L220.25 6.27188V14.9296H212.805Z" fill="#260661"/>
<path d="M224.723 25.0571H226.645L238.466 0.312988H236.544L224.723 25.0571Z" fill="#260661"/>
<path d="M238.578 2.79809V4.74875H249.118L240.472 21.6367H242.954L252 3.89367V2.79809H238.578Z" fill="#260661"/>
</svg>
