<svg width="48" height="48" viewBox="0 0 48 48" fill="none" xmlns="http://www.w3.org/2000/svg">
<path d="M27.8523 43.1182C29.6655 42.8453 34.554 42.0264 38.4925 37.414C43.2494 31.844 45.6237 21.9111 42.395 17.6927C39.0955 13.382 33.1314 19.202 22.3284 15.7694C13.2027 12.8689 10.5662 6.52533 7.1916 8.40817C3.22973 10.6187 2.85946 21.5947 6.01808 29.3517C6.35299 30.1738 7.60556 33.1166 10.2426 36.0668C11.0442 36.9634 18.0878 44.5897 27.8523 43.1182Z" fill="#61ADDF"/>
<path d="M42.5705 30.6909C43.1957 28.9687 44.8175 24.2911 43.1011 18.8821C41.0286 12.3494 34.5235 6.12038 29.8122 7.23458C24.9978 8.37333 26.7063 16.0809 19.1127 24.2422C12.6975 31.1361 6.63308 30.8429 6.52121 34.6187C6.38986 39.0517 14.6144 43.9354 21.9999 44.3519C22.7827 44.396 25.6095 44.5058 29.0787 43.3902C30.1331 43.051 39.2053 39.966 42.5705 30.6909Z" fill="#ACCFED"/>
<path fill-rule="evenodd" clip-rule="evenodd" d="M33.1093 41.563C30.8617 42.6382 28.8708 42.9641 27.8517 43.1175C18.0871 44.589 11.0436 36.9627 10.242 36.0661C9.10759 34.797 8.22942 33.5293 7.57027 32.4312C8.28453 31.7709 9.32854 31.2069 10.5947 30.523C12.9105 29.272 15.9695 27.6196 19.1127 24.2419C21.6998 21.4614 23.2072 18.7335 24.2606 16.3002C28.8069 17.3551 32.4216 16.8135 35.2963 16.3829C38.4864 15.9049 40.7652 15.5635 42.3943 17.692C42.6753 18.059 42.9138 18.4694 43.112 18.9164C43.6494 20.623 43.855 22.2564 43.8652 23.7464C43.6966 27.9396 41.9079 32.9309 39.1989 36.5307C37.2509 38.8574 35.0013 40.4797 33.1093 41.563Z" fill="#9F2D25"/>
</svg>
