<svg width="48" height="48" viewBox="0 0 48 48" fill="none" xmlns="http://www.w3.org/2000/svg">
<path d="M35.6766 10.494C34.469 9.11426 31.1432 5.43904 25.1351 4.6095C17.8791 3.60713 8.23393 6.96395 6.42244 11.9578C4.57146 17.0609 12.6889 18.9451 15.6237 29.8938C18.1021 39.1431 14.1816 44.7842 17.587 46.6108C21.585 48.7552 31.028 43.1483 35.8573 36.3053C36.369 35.5799 38.1718 32.9382 39.2343 29.1265C39.5571 27.9679 42.1813 17.9237 35.6766 10.494Z" fill="#7A9E7E"/>
<path d="M17.2743 4.79997C15.4869 5.20219 10.673 6.35879 7.04346 10.7211C2.6596 15.9892 0.921717 24.8264 4.4006 28.1932C7.95576 31.6335 13.5253 26.0384 24.4932 28.0323C33.7583 29.7174 36.7816 34.9825 40.0217 33.0407C43.8257 30.7608 43.5035 21.201 39.8716 14.7567C39.4865 14.0737 38.0547 11.6339 35.2444 9.31391C34.3902 8.60888 26.9 2.63235 17.2743 4.79997Z" fill="#ACCFED"/>
<path fill-rule="evenodd" clip-rule="evenodd" d="M31.532 6.90461C33.6495 8.21765 34.9976 9.71849 35.6764 10.4941C42.1811 17.9237 39.5569 27.9679 39.2341 29.1265C38.7771 30.7661 38.183 32.1893 37.6137 33.3366C36.6724 33.0911 35.6345 32.516 34.3758 31.8186C32.0734 30.5429 29.0323 28.8578 24.4929 28.0322C20.7562 27.3529 17.646 27.5545 15.0287 27.9795C13.4655 23.582 11.0602 20.8299 9.14738 18.6413C7.02462 16.2125 5.50829 14.4775 6.42223 11.9578C6.57985 11.5232 6.7968 11.1011 7.06632 10.6931C8.2138 9.32023 9.47845 8.2663 10.7277 7.45426C14.35 5.33506 19.5179 4.14983 24.0103 4.49003C27.0202 4.87583 29.5995 5.89551 31.532 6.90461Z" fill="#275D9A"/>
</svg>
