<svg width="48" height="48" viewBox="0 0 48 48" fill="none" xmlns="http://www.w3.org/2000/svg">
<path d="M8.68397 35.9798C9.47476 37.6341 11.6863 42.07 17.2482 44.4889C23.9651 47.4107 34.1582 46.7791 37.2492 42.4587C40.4077 38.0437 33.099 34.0404 33.2253 22.7059C33.3327 13.131 38.6291 8.75592 35.8424 6.07877C32.5708 2.93569 21.9656 5.78863 15.47 11.0759C14.7816 11.6364 12.3333 13.6942 10.2823 17.0782C9.65909 18.1068 4.42362 27.0713 8.68397 35.9798Z" fill="#FA4B1E"/>
<path d="M24.8685 46.4247C26.6981 46.5194 31.6455 46.7037 36.317 43.4817C41.959 39.5909 46.0155 31.5496 43.5733 27.3695C41.0775 23.0979 34.2055 26.9839 24.1816 22.1063C15.7141 17.9854 14.2225 12.1 10.5788 13.0962C6.30093 14.2659 4.03342 23.5585 5.79306 30.7434C5.97969 31.5049 6.7006 34.2404 8.78116 37.2323C9.41367 38.1416 15.0148 45.9165 24.8685 46.4247Z" fill="#E13205"/>
<path fill-rule="evenodd" clip-rule="evenodd" d="M11.7072 40.5534C10.0222 38.718 9.12878 36.9093 8.68427 35.9794C4.42393 27.0709 9.65939 18.1064 10.2826 17.0778C11.1649 15.6221 12.1206 14.4119 12.9782 13.4606C13.8184 13.9508 14.6628 14.7844 15.6869 15.7955C17.5599 17.6448 20.034 20.0874 24.1827 22.1065C27.5978 23.7683 30.6471 24.4128 33.2821 24.7093C33.6016 29.3654 35.1757 32.6641 36.4275 35.2875C37.8167 38.1988 38.809 40.2783 37.2495 42.4583C36.9805 42.8342 36.6578 43.1823 36.2882 43.5024C34.813 44.5151 33.311 45.1889 31.8891 45.634C27.8295 46.698 22.5334 46.4458 18.2992 44.9068C15.5048 43.7236 13.296 42.0462 11.7072 40.5534Z" fill="#9F2D25"/>
</svg>
