<svg width="48" height="48" viewBox="0 0 48 48" fill="none" xmlns="http://www.w3.org/2000/svg">
<path d="M22.6991 42.4068C24.5128 42.6757 29.4273 43.3212 34.5418 40.0612C40.7189 36.1246 45.8924 27.3193 44.0375 22.3414C42.1419 17.2547 34.7373 21.0776 25.4091 14.6376C17.5295 9.19678 16.862 2.35957 13.0845 3.17399C8.64955 4.13014 5.08769 14.5187 5.84141 22.8602C5.92142 23.7443 6.25927 26.9246 7.91898 30.5168C8.42359 31.6085 12.9308 40.9603 22.6991 42.4068Z" fill="#FA4B1E"/>
<path d="M40.4071 34.824C41.5083 33.3597 44.4264 29.3603 44.3657 23.6858C44.2929 16.8327 39.8922 8.97445 35.061 8.66312C30.124 8.34515 29.5054 16.2155 19.8581 21.8013C11.7082 26.5193 5.99423 24.4666 4.78375 28.0449C3.3626 32.2459 9.80078 39.3201 16.7421 41.8768C17.4779 42.1477 20.1492 43.0789 23.7929 43.0259C24.9004 43.0096 34.4782 42.7107 40.4071 34.824Z" fill="#260661"/>
<path fill-rule="evenodd" clip-rule="evenodd" d="M28.1811 42.4569C25.7173 42.8283 23.7181 42.5581 22.6986 42.407C12.9304 40.9605 8.42313 31.6086 7.91852 30.5169C7.20458 28.9717 6.73523 27.5027 6.42578 26.2599C7.30184 25.8372 8.46509 25.6029 9.87582 25.3189C12.4562 24.7993 15.8645 24.1131 19.8576 21.8015C23.1444 19.8984 25.3832 17.7302 27.1018 15.7109C31.1413 18.0485 34.7565 18.587 37.6315 19.0152C40.822 19.4905 43.1011 19.83 44.037 22.3416C44.1984 22.7748 44.3066 23.2369 44.3656 23.7223C44.3807 25.5115 44.1 27.1336 43.6743 28.5615C42.2875 32.5224 39.1182 36.7731 35.4754 39.424C32.9325 41.0798 30.307 41.9738 28.1811 42.4569Z" fill="#7E3FF3"/>
</svg>
