<svg width="48" height="48" viewBox="0 0 48 48" fill="none" xmlns="http://www.w3.org/2000/svg">
<path d="M8.68397 35.9808C9.47476 37.6351 11.6863 42.071 17.2482 44.4899C23.9651 47.4117 34.1582 46.7801 37.2492 42.4597C40.4077 38.0447 33.099 34.0414 33.2253 22.7069C33.3327 13.1319 38.6291 8.7569 35.8424 6.07974C32.5708 2.93666 21.9656 5.78961 15.47 11.0769C14.7816 11.6374 12.3333 13.6952 10.2823 17.0792C9.65909 18.1078 4.42362 27.0723 8.68397 35.9808Z" fill="#FA4B1E"/>
<path d="M24.8685 46.4257C26.6981 46.5203 31.6455 46.7047 36.317 43.4827C41.959 39.5918 46.0155 31.5506 43.5733 27.3704C41.0775 23.0989 34.2055 26.9849 24.1816 22.1073C15.7141 17.9863 14.2225 12.101 10.5788 13.0972C6.30093 14.2668 4.03342 23.5595 5.79306 30.7444C5.97969 31.5059 6.7006 34.2414 8.78116 37.2333C9.41367 38.1425 15.0148 45.9174 24.8685 46.4257Z" fill="#E13205"/>
<path fill-rule="evenodd" clip-rule="evenodd" d="M11.7062 40.5553C10.0212 38.72 9.1278 36.9112 8.6833 35.9813C4.42295 27.0729 9.65842 18.1084 10.2816 17.0797C11.1639 15.6241 12.1197 14.4138 12.9773 13.4626C13.8175 13.9527 14.6619 14.7864 15.6859 15.7974C17.559 17.6467 20.0331 20.0894 24.1817 22.1084C27.5969 23.7702 30.6461 24.4148 33.2811 24.7113C33.6006 29.3674 35.1747 32.6661 36.4265 35.2895C37.8157 38.2007 38.808 40.2803 37.2485 42.4603C36.9795 42.8362 36.6568 43.1842 36.2873 43.5044C34.8121 44.517 33.3101 45.1909 31.8881 45.636C27.8286 46.6999 22.5325 46.4477 18.2982 44.9087C15.5039 43.7256 13.295 42.0482 11.7062 40.5553Z" fill="#9F2D25"/>
</svg>
