<svg width="256" height="40" viewBox="0 0 256 40" fill="none" xmlns="http://www.w3.org/2000/svg">
<path d="M10.3053 14.594C10.3053 13.6473 9.98259 12.8513 9.35868 12.2059C8.73476 11.582 7.96025 11.2593 7.05666 11.2593H0V26.4268H8.69174C10.1332 26.4268 11.2519 25.9535 12.0695 25.0284C12.8655 24.1032 13.2743 22.963 13.2743 21.6291C13.2743 20.4243 12.887 19.3701 12.134 18.4665C11.3595 17.5844 10.3914 17.0466 9.20808 16.8745C9.93956 16.2936 10.3053 15.5191 10.3053 14.594ZM3.70044 14.4864H5.6152C6.04549 14.4864 6.3682 14.5725 6.60486 14.7661C6.84151 14.9597 6.94909 15.2179 6.94909 15.4976C6.94909 15.7773 6.84151 16.0139 6.62637 16.2075C6.41123 16.4012 6.08852 16.5087 5.67975 16.5087H3.70044V14.4864ZM3.72196 23.1997V19.2626H6.56183C7.46543 19.2626 8.15388 19.4562 8.60568 19.8434C9.05748 20.2307 9.27262 20.6825 9.27262 21.2203C9.27262 22.5327 8.36902 23.1997 6.54031 23.1997H3.72196Z" fill="black"/>
<path d="M15.1652 26.4268H18.8871V10.2051H15.1652V26.4268Z" fill="black"/>
<path d="M27.2355 14.5079C25.4498 14.5079 23.9438 15.0888 22.696 16.2721C21.4266 17.4554 20.8027 18.8753 20.8027 20.5749C20.8027 22.253 21.4266 23.673 22.696 24.8562C23.9438 26.0395 25.4498 26.6204 27.2355 26.6204C28.9996 26.6204 30.5056 26.0395 31.775 24.8562C33.0228 23.673 33.6467 22.253 33.6467 20.5749C33.6467 18.8968 33.0228 17.4554 31.775 16.2721C30.5056 15.0888 28.9996 14.5079 27.2355 14.5079ZM27.2355 23.3503C26.4609 23.3503 25.794 23.0706 25.2562 22.5327C24.7183 21.9949 24.4386 21.3279 24.4386 20.5749C24.4386 19.8004 24.7183 19.1335 25.2562 18.5956C25.794 18.0578 26.4609 17.7781 27.2355 17.7781C27.9885 17.7781 28.6554 18.0578 29.1932 18.5956C29.7311 19.1335 30.0108 19.8004 30.0108 20.5749C30.0108 21.3279 29.7311 21.9949 29.1932 22.5327C28.6554 23.0706 27.9885 23.3503 27.2355 23.3503Z" fill="black"/>
<path d="M43.9774 14.7231V15.1749C43.0092 14.7231 41.9981 14.5079 40.9439 14.5079C39.2658 14.5079 37.8673 15.0243 36.7486 16.0569C35.6299 17.1111 35.0705 18.488 35.0705 20.2307C35.0705 21.9518 35.6299 23.3503 36.7701 24.4044C37.8888 25.4586 39.2873 25.9965 40.9439 25.9965C41.9335 25.9965 42.8801 25.7814 43.8053 25.3726C43.8053 25.3941 43.8053 25.4156 43.8053 25.4371C43.7837 25.4586 43.7837 25.4802 43.7837 25.5017C43.3965 26.9861 42.2777 27.7391 40.449 27.7391C40.1694 27.7391 39.9112 27.7391 39.653 27.7176C39.3948 27.6961 39.1152 27.6531 38.7924 27.5885C38.4697 27.524 38.2331 27.4595 38.104 27.4379C37.9749 27.4164 37.7167 27.3519 37.308 27.2443C36.8992 27.1367 36.6841 27.0722 36.641 27.0507L35.9311 29.7185C35.9956 29.74 36.2107 29.8045 36.5765 29.9121C36.9207 30.0197 37.1143 30.0627 37.1789 30.0842C37.2219 30.0842 37.394 30.1272 37.6737 30.2133C37.9534 30.2778 38.147 30.3208 38.2546 30.3424C38.3622 30.3424 38.5343 30.3639 38.814 30.4069C39.0936 30.4499 39.3303 30.4714 39.5454 30.4714C39.7606 30.4714 40.0188 30.4714 40.3415 30.493C40.6642 30.5145 41.0084 30.5145 41.3741 30.5145C42.4714 30.5145 43.461 30.3209 44.3001 29.9336C45.1391 29.5248 45.8061 29.0085 46.2794 28.3415C46.7527 27.6746 47.0969 26.9861 47.3336 26.2332C47.5702 25.4802 47.6778 24.7056 47.6778 23.8881V14.7231H43.9774ZM38.7279 20.2522C38.7279 19.5422 39.0076 18.9398 39.5454 18.4665C40.0833 18.0147 40.7718 17.7781 41.6108 17.7781C42.5359 17.7781 43.3319 18.0147 43.9774 18.5096V21.9949C43.3104 22.4897 42.5359 22.7479 41.6108 22.7479C40.7502 22.7479 40.0618 22.5112 39.5239 22.0594C38.9861 21.6076 38.7279 21.0052 38.7279 20.2522Z" fill="black"/>
</svg>
