<svg width="48" height="48" viewBox="0 0 48 48" fill="none" xmlns="http://www.w3.org/2000/svg">
<path d="M35.6756 10.4921C34.468 9.1123 31.1422 5.43708 25.1341 4.60754C17.8781 3.60517 8.23295 6.962 6.42146 11.9558C4.57049 17.059 12.6879 18.9432 15.6227 29.8919C18.1011 39.1411 14.1806 44.7823 17.586 46.6088C21.584 48.7533 31.0271 43.1463 35.8563 36.3033C36.368 35.5779 38.1708 32.9362 39.2333 29.1245C39.5561 27.9659 42.1803 17.9217 35.6756 10.4921Z" fill="#9778C2"/>
<path d="M17.2743 4.79801C15.4869 5.20024 10.673 6.35683 7.04346 10.7191C2.6596 15.9872 0.921717 24.8245 4.4006 28.1912C7.95576 31.6316 13.5253 26.0364 24.4932 28.0304C33.7583 29.7154 36.7816 34.9806 40.0217 33.0387C43.8257 30.7589 43.5035 21.199 39.8716 14.7548C39.4865 14.0718 38.0547 11.632 35.2444 9.31195C34.3902 8.60693 26.9 2.63039 17.2743 4.79801Z" fill="#ACCFED"/>
<path fill-rule="evenodd" clip-rule="evenodd" d="M31.5311 6.90266C33.6486 8.2157 34.9966 9.71654 35.6754 10.4921C42.1801 17.9218 39.5559 27.966 39.2331 29.1245C38.7761 30.7642 38.182 32.1873 37.6127 33.3346C36.6715 33.0892 35.6335 32.5141 34.3748 31.8166C32.0725 30.5409 29.0314 28.8559 24.4919 28.0303C20.7552 27.351 17.6451 27.5525 15.0277 27.9776C13.4645 23.5801 11.0593 20.828 9.1464 18.6393C7.02364 16.2105 5.50732 14.4756 6.42125 11.9558C6.57888 11.5213 6.79582 11.0991 7.06534 10.6912C8.21282 9.31828 9.47747 8.26435 10.7267 7.45231C14.349 5.33311 19.517 4.14787 24.0093 4.48808C27.0192 4.87388 29.5985 5.89356 31.5311 6.90266Z" fill="#4F0C75"/>
</svg>
