<svg width="256" height="40" viewBox="0 0 256 40" fill="none" xmlns="http://www.w3.org/2000/svg">
<path d="M10.2669 15.2866C10.2669 14.3435 9.94536 13.5504 9.32377 12.9074C8.70219 12.2858 7.93057 11.9643 7.03034 11.9643H0V27.0753H8.65932C10.0954 27.0753 11.21 26.6037 12.0245 25.6821C12.8175 24.7604 13.2248 23.6244 13.2248 22.2955C13.2248 21.0952 12.8389 20.0449 12.0888 19.1447C11.3171 18.2659 10.3526 17.7301 9.17374 17.5586C9.90249 16.9799 10.2669 16.2083 10.2669 15.2866ZM3.68664 15.1794H5.59426C6.02294 15.1794 6.34445 15.2652 6.58023 15.4581C6.816 15.651 6.92317 15.9082 6.92317 16.1868C6.92317 16.4655 6.816 16.7012 6.60166 16.8941C6.38732 17.087 6.06581 17.1942 5.65857 17.1942H3.68664V15.1794ZM3.70808 23.8602V19.9378H6.53736C7.43758 19.9378 8.12347 20.1307 8.57359 20.5165C9.0237 20.9023 9.23804 21.3524 9.23804 21.8883C9.23804 23.1957 8.33781 23.8602 6.51592 23.8602H3.70808Z" fill="black"/>
<path d="M20.7029 15.2009C18.9238 15.2009 17.4235 15.7796 16.1803 16.9584C14.9157 18.1373 14.2941 19.5519 14.2941 21.2452C14.2941 22.9171 14.9157 24.3317 16.1803 25.5106C17.4235 26.6895 18.9238 27.2682 20.7029 27.2682C22.4604 27.2682 23.9608 26.6895 25.2254 25.5106C26.4686 24.3317 27.0902 22.9171 27.0902 21.2452C27.0902 19.5734 26.4686 18.1373 25.2254 16.9584C23.9608 15.7796 22.4604 15.2009 20.7029 15.2009ZM20.7029 24.0102C19.9312 24.0102 19.2668 23.7316 18.7309 23.1957C18.1951 22.6599 17.9164 21.9954 17.9164 21.2452C17.9164 20.4736 18.1951 19.8092 18.7309 19.2733C19.2668 18.7375 19.9312 18.4588 20.7029 18.4588C21.4531 18.4588 22.1175 18.7375 22.6534 19.2733C23.1892 19.8092 23.4678 20.4736 23.4678 21.2452C23.4678 21.9954 23.1892 22.6599 22.6534 23.1957C22.1175 23.7316 21.4531 24.0102 20.7029 24.0102Z" fill="black"/>
<path d="M34.6174 15.2009C32.8383 15.2009 31.338 15.7796 30.0948 16.9584C28.8302 18.1373 28.2086 19.5519 28.2086 21.2452C28.2086 22.9171 28.8302 24.3317 30.0948 25.5106C31.338 26.6895 32.8383 27.2682 34.6174 27.2682C36.3749 27.2682 37.8753 26.6895 39.1399 25.5106C40.3831 24.3317 41.0047 22.9171 41.0047 21.2452C41.0047 19.5734 40.3831 18.1373 39.1399 16.9584C37.8753 15.7796 36.3749 15.2009 34.6174 15.2009ZM34.6174 24.0102C33.8457 24.0102 33.1813 23.7316 32.6454 23.1957C32.1096 22.6599 31.8309 21.9954 31.8309 21.2452C31.8309 20.4736 32.1096 19.8092 32.6454 19.2733C33.1813 18.7375 33.8457 18.4588 34.6174 18.4588C35.3675 18.4588 36.032 18.7375 36.5678 19.2733C37.1037 19.8092 37.3823 20.4736 37.3823 21.2452C37.3823 21.9954 37.1037 22.6599 36.5678 23.1957C36.032 23.7316 35.3675 24.0102 34.6174 24.0102Z" fill="black"/>
<path d="M50.268 20.0021L54.3619 15.4152H50.0965L46.3456 19.4448V10.9141H42.6589V27.0753H46.3456V24.396L47.846 22.8742L50.3752 27.0753H54.4476L50.268 20.0021Z" fill="black"/>
<path d="M66.7189 13.529V11.9643H56.0234V27.0753H57.8024V21.8025H65.54V20.2378H57.8024V13.529H66.7189Z" fill="black"/>
<path d="M70.8541 15.4795H69.0751V27.0753H70.8541V21.2024C70.8541 20.0449 71.1757 19.059 71.7972 18.223C72.4188 17.4086 73.2548 17.0013 74.305 17.0013C74.8194 17.0013 75.3767 17.1085 75.9554 17.3442L76.084 15.6081C75.6125 15.3723 75.1409 15.2652 74.6694 15.2652C73.7906 15.2866 73.0404 15.5009 72.3974 15.951C71.7329 16.4012 71.2185 17.0013 70.8541 17.7515V15.4795Z" fill="black"/>
<path d="M78.2182 27.0753H79.9972V15.4795H78.2182V27.0753ZM79.1184 13.5504C79.4185 13.5504 79.6757 13.4433 79.8901 13.2289C80.1044 13.0146 80.2116 12.7574 80.2116 12.4359C80.2116 12.1144 80.1044 11.8572 79.8901 11.6428C79.6757 11.4499 79.4185 11.3427 79.1184 11.3427C78.7969 11.3427 78.5397 11.4499 78.3254 11.6428C78.0896 11.8572 77.9824 12.1144 77.9824 12.4359C77.9824 12.7574 78.0896 13.0146 78.3254 13.2289C78.5397 13.4433 78.7969 13.5504 79.1184 13.5504Z" fill="black"/>
<path d="M93.9343 21.8025L93.9558 21.331C93.9558 19.5305 93.4414 18.073 92.434 16.937C91.4266 15.8224 90.0548 15.2652 88.3401 15.2652C86.6254 15.2652 85.2107 15.8439 84.1176 17.0013C83.003 18.1587 82.4457 19.5734 82.4457 21.2452C82.4457 22.9171 83.003 24.3317 84.1176 25.4677C85.2107 26.6252 86.6254 27.2039 88.3401 27.2039C89.4332 27.2039 90.4406 26.9895 91.3408 26.5823C92.2411 26.175 92.9698 25.5963 93.5057 24.889L92.3268 23.9459C91.4051 25.0819 90.162 25.6392 88.6401 25.6392C87.547 25.6392 86.5611 25.2748 85.7251 24.5461C84.8678 23.8387 84.3748 22.9171 84.2247 21.8025H93.9343ZM88.3401 16.7227C89.5189 16.7227 90.4406 17.0656 91.105 17.7301C91.7695 18.4159 92.1339 19.3162 92.2196 20.4093H84.2462C84.3962 19.359 84.8463 18.4803 85.5965 17.7729C86.3467 17.0656 87.2469 16.7227 88.3401 16.7227Z" fill="black"/>
<path d="M101.993 15.2652C100.406 15.2652 99.1203 15.7153 98.113 16.5941V15.4795H96.3339V27.0753H98.113V18.1587C99.0989 17.2799 100.299 16.8513 101.714 16.8513C102.764 16.8513 103.621 17.1728 104.243 17.7944C104.865 18.4159 105.186 19.3162 105.186 20.495V27.0753H106.965V20.495C106.965 18.7589 106.537 17.4514 105.679 16.5726C104.8 15.6938 103.579 15.2652 101.993 15.2652Z" fill="black"/>
<path d="M119.133 10.9141V16.4869C117.976 15.6724 116.625 15.2652 115.104 15.2652C113.453 15.2652 112.038 15.8224 110.881 16.9584C109.702 18.0944 109.123 19.5305 109.123 21.2452C109.123 22.9385 109.702 24.3532 110.881 25.4892C112.038 26.6252 113.453 27.2039 115.104 27.2039C116.69 27.2039 118.04 26.7966 119.133 25.9607V27.0753H120.891V10.9141H119.133ZM115.361 25.6178C114.118 25.6178 113.067 25.1891 112.21 24.3532C111.331 23.5172 110.902 22.4884 110.902 21.2452C110.902 20.0235 111.331 18.9732 112.21 18.1159C113.067 17.2799 114.118 16.8513 115.361 16.8513C116.904 16.8513 118.169 17.3014 119.133 18.2016V24.2246C118.169 25.1462 116.904 25.6178 115.361 25.6178Z" fill="black"/>
<path d="M123.225 26.1322C124.833 26.8395 126.462 27.2039 128.112 27.2039C129.634 27.2039 130.77 26.8824 131.563 26.2393C132.335 25.5963 132.721 24.7604 132.721 23.753C132.721 22.8099 132.356 22.0812 131.606 21.5667C130.856 21.0523 129.763 20.6451 128.305 20.3664C127.148 20.1307 126.312 19.8735 125.819 19.5948C125.304 19.3162 125.047 18.9518 125.047 18.4588C125.047 17.9444 125.304 17.5157 125.797 17.1942C126.29 16.8727 126.912 16.7227 127.705 16.7227C129.077 16.7227 130.341 16.9799 131.52 17.4943L132.12 16.1654C130.641 15.5652 129.184 15.2652 127.748 15.2652C126.483 15.2652 125.454 15.5652 124.661 16.1868C123.847 16.8084 123.44 17.58 123.44 18.5446C123.44 19.4662 123.804 20.1521 124.554 20.6451C125.304 21.1381 126.376 21.5453 127.791 21.8454C128.927 22.0812 129.763 22.3384 130.299 22.617C130.813 22.8956 131.07 23.3029 131.07 23.8387C131.07 24.3746 130.834 24.8461 130.363 25.2105C129.891 25.5749 129.163 25.7678 128.155 25.7678C126.933 25.7678 125.497 25.4463 123.89 24.8033L123.225 26.1322Z" fill="black"/>
</svg>
