<svg xmlns="http://www.w3.org/2000/svg" width="484" height="332" fill="none"><path fill="#B1A2DA" fill-rule="evenodd" d="M263.7 19.1A59.3 59.3 0 0 0 225.4 6l-.3-5.2c14.8-1 28.9 5 41.6 14.1a171.2 171.2 0 0 1 34 34.5 311.6 311.6 0 0 1 32 52.2l.3.7c7.7 18.2 9.2 34.2 4.6 47.3a48.2 48.2 0 0 1-31 28.7c-30.9 11.5-82 8-148.2-14.4-39-13.1-69.3-15.6-92.1-10.7a68 68 0 0 0-47.6 34.3c-9.4 17.2-12.8 39.3-11 63.8 1.5 22.5 7.6 47 17.2 71l6.4-15.8a2.6 2.6 0 0 1 4.9 2l-8.8 21.7c-.5 1.4-2 2-3.4 1.5l-21.8-8.8a2.6 2.6 0 0 1 2-4.8l16 6.4a246 246 0 0 1-17.8-72.9c-1.8-25 1.7-48.3 11.8-66.6a73.3 73.3 0 0 1 51-37c24-5.1 55.3-2.3 94.9 11 65.9 22.2 115.5 25.3 144.8 14.4 14.5-5.4 23.7-14.1 27.7-25.5 4-11.5 3-26.2-4.4-43.7l-.1-.2v-.1l-.1-.2-.5-1-1.7-3.5a306.3 306.3 0 0 0-29.3-46.7 166 166 0 0 0-32.8-33.4Z" clip-rule="evenodd"/><path fill="#B1A2DA" fill-rule="evenodd" d="M194.3 35.8c1.1 17 13.3 38.3 33.5 55.5 9.4 8 25.5 16 45.7 22.5 20.1 6.4 44 11.2 69 13 50 3.7 103.1-4.6 137.3-35.4l3.5 3.8c-35.7 32.3-90.7 40.6-141.2 36.9a310 310 0 0 1-70.2-13.4 143.5 143.5 0 0 1-47.5-23.4c-20.8-17.8-34-40.3-35.3-59.1a31.3 31.3 0 0 1 8-24.7c6.1-6.4 15.8-10.3 29-10.8l.1 5.2c-12.2.5-20.4 4-25.4 9.3-5 5.1-7.1 12.2-6.5 20.6Z" clip-rule="evenodd"/></svg>