<svg width="256" height="40" viewBox="0 0 256 40" fill="none" xmlns="http://www.w3.org/2000/svg">
<path d="M13.9731 20.0812C13.9731 20.5759 13.9649 20.9139 13.9484 21.0952H3.46237C3.64373 22.101 4.0724 22.8759 4.74839 23.42C5.44086 23.964 6.33943 24.2361 7.44409 24.2361C9.12581 24.2361 10.4283 23.659 11.3516 22.5049L13.5032 24.335C12.1677 26.1816 10.0656 27.1049 7.19678 27.1049C4.95448 27.1049 3.19032 26.4701 1.9043 25.2006C0.634767 23.9311 0 22.2081 0 20.0318C0 17.9049 0.651254 16.1985 1.95376 14.9124C3.25627 13.6099 4.94624 12.9587 7.02366 12.9587C9.28244 12.9587 11.0054 13.6099 12.1925 14.9124C13.3796 16.1985 13.9731 17.9214 13.9731 20.0812ZM7.02366 15.8028C6.11685 15.8028 5.35018 16.0418 4.72366 16.52C4.09713 16.9816 3.68495 17.6823 3.4871 18.6221H10.6344C10.519 17.8142 10.1645 17.1465 9.57097 16.6189C8.97742 16.0748 8.12832 15.8028 7.02366 15.8028Z" fill="black"/>
<path d="M29.0591 26.8329H25.1022L21.8871 22.406L18.672 26.8329H14.7645L19.7108 19.9081L14.8387 13.3296H18.8452L21.8871 17.5834L24.9785 13.3296H28.9849L24.1376 19.8587L29.0591 26.8329Z" fill="black"/>
<path d="M30.8831 31.1855V13.3296H34.2465V14.492C35.2522 13.5028 36.6372 13.0081 38.4013 13.0081C40.3139 13.0081 41.8472 13.6511 43.0013 14.9372C44.172 16.2067 44.7573 17.9131 44.7573 20.0565C44.7573 22.2164 44.1637 23.9393 42.9766 25.2253C41.806 26.4949 40.2315 27.1296 38.253 27.1296C36.4723 27.1296 35.1368 26.5938 34.2465 25.5221V31.1855H30.8831ZM37.511 24.063C38.6487 24.063 39.5555 23.7085 40.2315 22.9995C40.9074 22.2741 41.2454 21.2931 41.2454 20.0565C41.2454 18.8035 40.9074 17.8307 40.2315 17.1382C39.572 16.4293 38.6899 16.0748 37.5852 16.0748C36.9092 16.0748 36.258 16.2314 35.6315 16.5447C35.0049 16.8415 34.5268 17.2619 34.197 17.806V22.2823C34.873 23.4694 35.9777 24.063 37.511 24.063Z" fill="black"/>
<path d="M47.3061 26.8329V13.3296H50.5954V15.0855C51.6341 13.7171 53.0355 13.0329 54.7997 13.0329C55.2119 13.0329 55.5251 13.0741 55.7395 13.1565V16.8415C55.1129 16.6766 54.5688 16.5941 54.1072 16.5941C53.1015 16.5941 52.2853 16.9239 51.6588 17.5834C51.0323 18.2429 50.719 19.1992 50.719 20.4522V26.8329H47.3061Z" fill="black"/>
<path d="M70.85 20.0812C70.85 20.5759 70.8418 20.9139 70.8253 21.0952H60.3393C60.5206 22.101 60.9493 22.8759 61.6253 23.42C62.3178 23.964 63.2163 24.2361 64.321 24.2361C66.0027 24.2361 67.3052 23.659 68.2285 22.5049L70.3801 24.335C69.0446 26.1816 66.9425 27.1049 64.0737 27.1049C61.8314 27.1049 60.0672 26.4701 58.7812 25.2006C57.5117 23.9311 56.8769 22.2081 56.8769 20.0318C56.8769 17.9049 57.5281 16.1985 58.8307 14.9124C60.1332 13.6099 61.8231 12.9587 63.9006 12.9587C66.1593 12.9587 67.8823 13.6099 69.0694 14.9124C70.2565 16.1985 70.85 17.9214 70.85 20.0812ZM63.9006 15.8028C62.9937 15.8028 62.2271 16.0418 61.6006 16.52C60.974 16.9816 60.5618 17.6823 60.364 18.6221H67.5113C67.3959 17.8142 67.0414 17.1465 66.4479 16.6189C65.8543 16.0748 65.0052 15.8028 63.9006 15.8028Z" fill="black"/>
<path d="M77.9726 27.1791C75.8457 27.1791 73.9414 26.7834 72.2597 25.992L73.3479 23.2963C74.6833 24.1042 76.192 24.5081 77.8737 24.5081C79.44 24.5081 80.2231 24.03 80.2231 23.0737C80.2231 22.678 80.017 22.373 79.6049 22.1587C79.1927 21.9443 78.4013 21.7053 77.2307 21.4415C75.5984 21.0787 74.3866 20.5841 73.5952 19.9576C72.8203 19.3311 72.4328 18.416 72.4328 17.2124C72.4328 15.8605 72.9109 14.83 73.8672 14.121C74.84 13.4121 76.159 13.0576 77.8242 13.0576C79.5389 13.0576 81.3031 13.4121 83.1167 14.121L82.0038 16.8415C80.7013 16.149 79.2998 15.8028 77.7995 15.8028C76.4805 15.8028 75.821 16.1902 75.821 16.9651C75.821 17.3773 76.0106 17.6906 76.3898 17.9049C76.7855 18.1192 77.5687 18.3666 78.7393 18.6468C80.4375 19.059 81.6823 19.5701 82.4737 20.1802C83.2816 20.7737 83.6855 21.6311 83.6855 22.7522C83.6855 25.7035 81.7812 27.1791 77.9726 27.1791Z" fill="black"/>
<path d="M91.0627 27.1791C88.9359 27.1791 87.0315 26.7834 85.3498 25.992L86.438 23.2963C87.7735 24.1042 89.2821 24.5081 90.9638 24.5081C92.5301 24.5081 93.3133 24.03 93.3133 23.0737C93.3133 22.678 93.1072 22.373 92.695 22.1587C92.2828 21.9443 91.4914 21.7053 90.3208 21.4415C88.6885 21.0787 87.4767 20.5841 86.6853 19.9576C85.9104 19.3311 85.523 18.416 85.523 17.2124C85.523 15.8605 86.0011 14.83 86.9574 14.121C87.9301 13.4121 89.2491 13.0576 90.9144 13.0576C92.6291 13.0576 94.3932 13.4121 96.2068 14.121L95.0939 16.8415C93.7914 16.149 92.39 15.8028 90.8896 15.8028C89.5706 15.8028 88.9111 16.1902 88.9111 16.9651C88.9111 17.3773 89.1007 17.6906 89.4799 17.9049C89.8756 18.1192 90.6588 18.3666 91.8294 18.6468C93.5276 19.059 94.7724 19.5701 95.5638 20.1802C96.3717 20.7737 96.7756 21.6311 96.7756 22.7522C96.7756 25.7035 94.8713 27.1791 91.0627 27.1791Z" fill="black"/>
<path d="M99.6518 31.1608V13.5275H100.987V15.2587C102.158 13.9562 103.798 13.3049 105.909 13.3049C107.854 13.3049 109.437 13.9232 110.657 15.1597C111.894 16.3798 112.512 18.0368 112.512 20.1307C112.512 22.2411 111.902 23.9228 110.682 25.1759C109.478 26.4124 107.863 27.0307 105.835 27.0307C103.757 27.0307 102.141 26.3547 100.987 25.0028V31.1608H99.6518ZM105.736 25.72C107.351 25.72 108.646 25.2171 109.618 24.2114C110.608 23.2056 111.102 21.8454 111.102 20.1307C111.102 18.4325 110.599 17.0888 109.594 16.0995C108.604 15.1103 107.327 14.6157 105.76 14.6157C104.837 14.6157 103.947 14.8135 103.089 15.2092C102.232 15.6049 101.531 16.1902 100.987 16.9651V23.3458C101.498 24.1372 102.183 24.7307 103.04 25.1264C103.897 25.5221 104.796 25.72 105.736 25.72Z" fill="black"/>
<path d="M117.271 11.2028C117.056 11.4336 116.784 11.549 116.455 11.549C116.125 11.549 115.844 11.4336 115.614 11.2028C115.383 10.9719 115.267 10.6999 115.267 10.3866C115.267 10.0569 115.383 9.78483 115.614 9.57049C115.844 9.33967 116.125 9.22426 116.455 9.22426C116.784 9.22426 117.056 9.33967 117.271 9.57049C117.501 9.78483 117.617 10.0569 117.617 10.3866C117.617 10.6999 117.501 10.9719 117.271 11.2028ZM115.737 26.8329V13.5275H117.122V26.8329H115.737Z" fill="black"/>
<path d="M127.329 27.0307C125.186 27.0307 123.479 26.4042 122.21 25.1511C120.94 23.8981 120.305 22.2329 120.305 20.1554C120.305 18.0945 120.965 16.4375 122.284 15.1845C123.619 13.9314 125.342 13.3049 127.453 13.3049C128.508 13.3049 129.505 13.5192 130.445 13.9479C131.385 14.3601 132.143 14.9207 132.72 15.6296L131.756 16.5694C131.278 15.9759 130.651 15.506 129.876 15.1597C129.101 14.797 128.293 14.6157 127.453 14.6157C125.754 14.6157 124.369 15.1268 123.298 16.149C122.243 17.1547 121.715 18.4902 121.715 20.1554C121.715 21.8372 122.226 23.1891 123.248 24.2114C124.287 25.2171 125.647 25.72 127.329 25.72C128.252 25.72 129.118 25.5386 129.926 25.1759C130.734 24.8131 131.385 24.3268 131.879 23.7167L132.844 24.6565C132.25 25.382 131.459 25.959 130.47 26.3877C129.481 26.8164 128.434 27.0307 127.329 27.0307Z" fill="black"/>
<path d="M146.365 26.8329L141.74 19.5619L137.214 24.1124V26.8329H135.879V8.18555H137.214V22.3071L145.746 13.5275H147.601L142.729 18.5232L148.022 26.8329H146.365Z" fill="black"/>
<path d="M155.582 27.0307C153.801 27.0307 152.474 26.5691 151.6 25.6458C150.726 24.706 150.289 23.2304 150.289 21.2189V13.5275H151.625V21.12C151.625 22.7192 151.971 23.8898 152.664 24.6318C153.356 25.3737 154.403 25.7447 155.805 25.7447C157.536 25.7447 159.11 25.0192 160.528 23.5683V13.5275H161.864V26.8329H160.528V25.0275C159.044 26.363 157.396 27.0307 155.582 27.0307Z" fill="black"/>
<path d="M165.706 31.1608V13.5275H167.042V15.2587C168.212 13.9562 169.853 13.3049 171.963 13.3049C173.909 13.3049 175.492 13.9232 176.712 15.1597C177.948 16.3798 178.566 18.0368 178.566 20.1307C178.566 22.2411 177.956 23.9228 176.736 25.1759C175.533 26.4124 173.917 27.0307 171.889 27.0307C169.812 27.0307 168.196 26.3547 167.042 25.0028V31.1608H165.706ZM171.79 25.72C173.406 25.72 174.7 25.2171 175.673 24.2114C176.662 23.2056 177.157 21.8454 177.157 20.1307C177.157 18.4325 176.654 17.0888 175.648 16.0995C174.659 15.1103 173.381 14.6157 171.815 14.6157C170.892 14.6157 170.001 14.8135 169.144 15.2092C168.287 15.6049 167.586 16.1902 167.042 16.9651V23.3458C167.553 24.1372 168.237 24.7307 169.094 25.1264C169.952 25.5221 170.85 25.72 171.79 25.72Z" fill="black"/>
</svg>
