<svg width="48" height="48" viewBox="0 0 48 48" fill="none" xmlns="http://www.w3.org/2000/svg">
<mask id="mask0_1681_7415" style="mask-type:alpha" maskUnits="userSpaceOnUse" x="0" y="0" width="48" height="48">
<rect width="48" height="48" fill="#D9D9D9"/>
</mask>
<g mask="url(#mask0_1681_7415)">
<path d="M21.2967 34.1887C25.9252 32.8979 27.2665 34.3829 31.2944 37.1368C35.3222 39.8907 37.2522 38.1859 39.0527 35.6839C41.7155 31.9836 42.8541 21.7667 39.2163 15.9512C33.4086 6.66717 24.5051 6.50359 18.4828 7.71955C4.37648 10.5677 5.03907 22.8874 5.83724 25.9665C8.70035 37.0114 15.511 35.8023 21.2967 34.1887Z" fill="#FFCC33"/>
<path d="M15.2543 30.7304C19.7316 32.2907 22.8306 32.08 24.5436 36.5795C26.2565 41.079 29.6943 40.5701 31.6482 39.771C34.9777 37.952 39.8463 34.3115 40.9158 27.2739C42.7008 15.5284 34.3147 9.45213 27.8791 7.69805C14.1787 3.9639 8.44465 12.4183 7.35756 15.3627C3.4581 25.9245 9.6576 28.7799 15.2543 30.7304Z" fill="#CC3333"/>
</g>
</svg>
