<svg width="256" height="40" viewBox="0 0 256 40" fill="none" xmlns="http://www.w3.org/2000/svg">
<path d="M14.5833 12.0533V8.64783H0V28.0098H3.81747V22.3523H13.0728V18.9467H3.81747V12.0533H14.5833Z" fill="black"/>
<path d="M17.2938 28.0098H21.1387V7.3021H17.2938V28.0098Z" fill="black"/>
<path d="M38.8387 21.6382C38.8387 21.391 38.8662 21.0889 38.8662 20.7868C38.8662 16.1454 36.2022 12.8223 31.6157 12.8223C27.1117 12.8223 23.9808 16.2553 23.9808 20.5396C23.9808 24.7965 27.1117 28.2295 31.6157 28.2295C34.5269 28.2295 36.9712 27.0211 38.3444 25.1536L35.9001 23.1212C35.0762 24.2473 33.6206 24.9613 32.0552 24.9613C29.7757 24.9613 28.2102 23.5881 27.7983 21.6382H38.8387ZM31.6157 15.8708C34.1699 15.8708 35.0762 17.4912 35.2135 19.1939H27.8257C28.1828 17.3538 29.6109 15.8708 31.6157 15.8708Z" fill="black"/>
<path d="M47.1042 23.6156L50.5647 28.0098H54.7117L49.2464 20.3749L54.6568 13.097H50.3724L47.1042 17.4637L43.8361 13.097H39.5517L44.9621 20.3749L39.4968 28.0098H43.6163L47.1042 23.6156Z" fill="black"/>
<path d="M83.3895 18.3425C83.3895 12.9871 79.0227 8.64783 73.6398 8.64783H65.9774V28.0098H74.2715C79.3523 28.0098 83.3895 23.4783 83.3895 18.3425ZM69.7949 24.412V12.2456H73.6398C76.8806 12.2456 79.5171 14.992 79.5171 18.3425C79.5171 21.5833 77.0179 24.412 73.9419 24.412H69.7949Z" fill="black"/>
<path d="M100.498 21.6382C100.498 21.391 100.526 21.0889 100.526 20.7868C100.526 16.1454 97.8616 12.8223 93.2751 12.8223C88.7711 12.8223 85.6402 16.2553 85.6402 20.5396C85.6402 24.7965 88.7711 28.2295 93.2751 28.2295C96.1863 28.2295 98.6306 27.0211 100.004 25.1536L97.5595 23.1212C96.7356 24.2473 95.28 24.9613 93.7146 24.9613C91.4351 24.9613 89.8696 23.5881 89.4577 21.6382H100.498ZM93.2751 15.8708C95.8293 15.8708 96.7356 17.4912 96.8729 19.1939H89.4851C89.8422 17.3538 91.2703 15.8708 93.2751 15.8708Z" fill="black"/>
<path d="M103.306 28.0098H107.151V7.3021H103.306V28.0098Z" fill="black"/>
<path d="M110.789 28.0098H114.607V13.097H110.789V28.0098ZM112.684 11.4766C113.893 11.4766 114.854 10.4879 114.854 9.25203C114.854 8.01616 113.893 7 112.684 7C111.476 7 110.487 8.01616 110.487 9.25203C110.487 10.4879 111.476 11.4766 112.684 11.4766Z" fill="black"/>
<path d="M129.01 13.097L124.973 21.5558L120.909 13.097H116.899L124.067 28.0098H125.88L133.02 13.097H129.01Z" fill="black"/>
<path d="M148.426 21.6382C148.426 21.391 148.453 21.0889 148.453 20.7868C148.453 16.1454 145.789 12.8223 141.203 12.8223C136.699 12.8223 133.568 16.2553 133.568 20.5396C133.568 24.7965 136.699 28.2295 141.203 28.2295C144.114 28.2295 146.558 27.0211 147.931 25.1536L145.487 23.1212C144.663 24.2473 143.208 24.9613 141.642 24.9613C139.363 24.9613 137.797 23.5881 137.385 21.6382H148.426ZM141.203 15.8708C143.757 15.8708 144.663 17.4912 144.8 19.1939H137.413C137.77 17.3538 139.198 15.8708 141.203 15.8708Z" fill="black"/>
<path d="M155.023 13.097H151.178V28.0098H155.023V20.8143C155.023 18.8644 156.067 16.9144 158.813 16.9144C159.61 16.9144 160.653 17.1341 160.653 17.1341V12.9871C160.351 12.8773 159.994 12.8223 159.72 12.8223C157.605 12.8498 156.04 13.7836 155.023 15.1842V13.097Z" fill="black"/>
<path d="M173.961 13.097L170.116 23.2311H169.841L165.914 13.097H161.904L167.727 28.0098H168.056C167.205 29.74 165.365 30.2618 163.305 30.2618H162.893L162.426 33.1455C162.838 33.173 163.278 33.173 163.772 33.173C166.903 33.173 170.418 32.1843 171.736 28.8062L177.888 13.097H173.961Z" fill="black"/>
</svg>
