<svg width="256" height="40" viewBox="0 0 256 40" fill="none" xmlns="http://www.w3.org/2000/svg">
<path d="M9.09187 8C4.41679 8 2.73789 10.3763 2.73789 13.6308H0.774875V16.6011H2.73789V26.3387C2.73789 28.9991 2.22131 29.4641 0 29.4641V32.3311C0.413267 32.4344 1.03317 32.5377 1.65307 32.5377C4.18433 32.5377 6.32815 31.4271 6.32815 28.1209V16.6011H10.0992V13.6308H6.32815C6.32815 11.5644 7.258 10.9445 9.09187 10.9445C10.7191 10.9445 11.8039 11.4353 11.8039 14.199V27.656H15.42V13.14C15.42 9.49809 12.3722 8 9.09187 8Z" fill="black"/>
<path d="M32.0611 21.6636C32.0611 21.4312 32.0869 21.1471 32.0869 20.8629C32.0869 16.4978 29.5815 13.3725 25.268 13.3725C21.032 13.3725 18.0875 16.6011 18.0875 20.6305C18.0875 24.634 21.032 27.8626 25.268 27.8626C28.0059 27.8626 30.3047 26.7262 31.5962 24.9698L29.2974 23.0584C28.5225 24.1174 27.1535 24.789 25.6813 24.789C23.5374 24.789 22.0652 23.4975 21.6777 21.6636H32.0611ZM25.268 16.2395C27.6701 16.2395 28.5225 17.7634 28.6516 19.3648H21.7036C22.0394 17.6343 23.3825 16.2395 25.268 16.2395Z" fill="black"/>
<path d="M39.8347 23.5233L43.0891 27.656H46.9893L41.8493 20.4755L46.9377 13.6308H42.9083L39.8347 17.7376L36.761 13.6308H32.7316L37.82 20.4755L32.68 27.656H36.5543L39.8347 23.5233Z" fill="black"/>
<path d="M49.4932 32.1761V13.7599H50.8879V15.5679C52.1105 14.2076 53.8238 13.5274 56.0279 13.5274C58.0598 13.5274 59.7129 14.1732 60.9871 15.4646C62.2786 16.7389 62.9243 18.4694 62.9243 20.6563C62.9243 22.8604 62.2872 24.6168 61.013 25.9255C59.7559 27.2169 58.0684 27.8626 55.9504 27.8626C53.7808 27.8626 52.0933 27.1566 50.8879 25.7446V32.1761H49.4932ZM55.8471 26.4937C57.5346 26.4937 58.8864 25.9685 59.9023 24.9181C60.9355 23.8677 61.4521 22.4471 61.4521 20.6563C61.4521 18.8827 60.9269 17.4793 59.8765 16.4461C58.8433 15.413 57.5088 14.8964 55.873 14.8964C54.9087 14.8964 53.9788 15.103 53.0834 15.5163C52.188 15.9296 51.4562 16.5408 50.8879 17.3502V24.0141C51.4217 24.8406 52.1363 25.4605 53.0317 25.8738C53.9272 26.2871 54.8656 26.4937 55.8471 26.4937Z" fill="black"/>
<path d="M72.3368 27.8626C70.2188 27.8626 68.5227 27.2083 67.2485 25.8996C65.9915 24.5909 65.363 22.8346 65.363 20.6305C65.363 18.4436 66.0001 16.713 67.2743 15.4388C68.5658 14.1646 70.2361 13.5274 72.2852 13.5274C74.4893 13.5274 76.194 14.2076 77.3994 15.5679V13.7599H78.7941V27.656H77.3994V25.7705C76.194 27.1653 74.5065 27.8626 72.3368 27.8626ZM72.466 26.4937C73.4475 26.4937 74.3773 26.2871 75.2555 25.8738C76.151 25.4605 76.8656 24.8406 77.3994 24.0141V17.3502C76.8311 16.5408 76.0993 15.9296 75.2039 15.5163C74.3085 15.103 73.3786 14.8964 72.4143 14.8964C70.7785 14.8964 69.4354 15.413 68.385 16.4461C67.3518 17.4621 66.8352 18.8569 66.8352 20.6305C66.8352 22.4213 67.3432 23.8505 68.3591 24.9181C69.3923 25.9685 70.7613 26.4937 72.466 26.4937Z" fill="black"/>
<path d="M93.4764 13.7599H95.0003L88.8788 28.2501C88.5172 29.1283 88.1126 29.8601 87.6648 30.4456C87.2344 31.031 86.778 31.4615 86.2959 31.737C85.831 32.0297 85.3833 32.2278 84.9528 32.3311C84.5395 32.4344 84.0746 32.4861 83.558 32.4861C82.9725 32.4861 82.3096 32.3827 81.5692 32.1761V30.7813C82.3096 31.0052 82.9898 31.1171 83.6097 31.1171C84.5223 31.1171 85.2713 30.876 85.8568 30.3939C86.4423 29.9118 86.9761 29.1283 87.4582 28.0434L80.8976 13.7599H82.4732L88.2073 26.3904L93.4764 13.7599Z" fill="black"/>
</svg>
