<svg width="256" height="40" viewBox="0 0 256 40" fill="none" xmlns="http://www.w3.org/2000/svg">
<path d="M4.11337 11.1419C3.65633 11.618 3.09455 11.8561 2.42803 11.8561C1.76151 11.8561 1.19021 11.618 0.714127 11.1419C0.238042 10.6659 0 10.0946 0 9.42803C0 8.76151 0.238042 8.19021 0.714127 7.71413C1.19021 7.23804 1.76151 7 2.42803 7C3.09455 7 3.65633 7.23804 4.11337 7.71413C4.58946 8.19021 4.8275 8.76151 4.8275 9.42803C4.8275 10.0946 4.58946 10.6659 4.11337 11.1419ZM0.399911 29.3665V13.7699H4.39902V29.3665H0.399911Z" fill="black"/>
<path d="M25.379 29.3665H20.4658L16.4381 23.5963H15.8953H12.2676V29.3665H8.23991V9.11382H16.4667C19.1137 9.11382 21.1323 9.73273 22.5224 10.9705C23.9317 12.2084 24.6363 13.9984 24.6363 16.3408C24.6363 19.5782 23.2937 21.7396 20.6086 22.8251L25.379 29.3665ZM15.8097 20.1399C17.3331 20.1399 18.4757 19.8162 19.2375 19.1687C20.0182 18.5212 20.4086 17.6453 20.4086 16.5407C20.4086 13.9889 18.9804 12.713 16.1239 12.713H12.2676V20.1399H15.8097Z" fill="black"/>
<path d="M42.9641 21.5682C42.9641 22.1395 42.9546 22.5299 42.9355 22.7394H30.8239C31.0334 23.901 31.5286 24.796 32.3093 25.4245C33.1092 26.0529 34.147 26.3671 35.4229 26.3671C37.3653 26.3671 38.8698 25.7006 39.9362 24.3676L42.4214 26.4814C40.8789 28.6142 38.4508 29.6807 35.1373 29.6807C32.5474 29.6807 30.5097 28.9475 29.0243 27.4812C27.558 26.0148 26.8248 24.0248 26.8248 21.5111C26.8248 19.0545 27.577 17.0835 29.0815 15.5981C30.5859 14.0937 32.5378 13.3414 34.9373 13.3414C37.5463 13.3414 39.5363 14.0937 40.9074 15.5981C42.2785 17.0835 42.9641 19.0735 42.9641 21.5682ZM34.9373 16.6264C33.8899 16.6264 33.0044 16.9026 32.2808 17.4548C31.5571 17.988 31.081 18.7974 30.8525 19.8828H39.1078C38.9745 18.9497 38.5651 18.1785 37.8795 17.5691C37.194 16.9406 36.2132 16.6264 34.9373 16.6264Z" fill="black"/>
<path d="M45.535 34.3939V13.7699H49.4198V15.1125C50.5815 13.9699 52.1811 13.3986 54.2187 13.3986C56.4278 13.3986 58.1988 14.1413 59.5318 15.6267C60.8839 17.093 61.56 19.064 61.56 21.5396C61.56 24.0343 60.8744 26.0243 59.5033 27.5097C58.1512 28.9761 56.3326 29.7092 54.0474 29.7092C51.9907 29.7092 50.4482 29.0903 49.4198 27.8525V34.3939H45.535ZM53.1904 26.1672C54.5044 26.1672 55.5518 25.7577 56.3326 24.9389C57.1133 24.101 57.5037 22.9679 57.5037 21.5396C57.5037 20.0923 57.1133 18.9688 56.3326 18.1689C55.5708 17.3501 54.552 16.9406 53.2761 16.9406C52.4953 16.9406 51.7431 17.1216 51.0195 17.4834C50.2958 17.8262 49.7435 18.3118 49.3627 18.9402V24.1105C50.1435 25.4816 51.4194 26.1672 53.1904 26.1672Z" fill="black"/>
<path d="M71.1882 29.7092C68.903 29.7092 67.0748 28.9761 65.7037 27.5097C64.3326 26.0243 63.647 24.0343 63.647 21.5396C63.647 19.064 64.323 17.093 65.6751 15.6267C67.0272 14.1413 68.8078 13.3986 71.0168 13.3986C73.0544 13.3986 74.6541 13.9699 75.8157 15.1125V13.7699H79.7006V29.3665H75.8729V27.8525C74.8445 29.0903 73.283 29.7092 71.1882 29.7092ZM72.0451 26.1672C73.8352 26.1672 75.1111 25.4816 75.8729 24.1105V18.9402C75.492 18.3118 74.9397 17.8262 74.2161 17.4834C73.4924 17.1216 72.7402 16.9406 71.9594 16.9406C70.6835 16.9406 69.6552 17.3501 68.8744 18.1689C68.0936 18.9688 67.7032 20.0923 67.7032 21.5396C67.7032 22.9679 68.0936 24.101 68.8744 24.9389C69.6552 25.7577 70.7121 26.1672 72.0451 26.1672Z" fill="black"/>
<path d="M87.0748 11.1419C86.6178 11.618 86.056 11.8561 85.3895 11.8561C84.723 11.8561 84.1517 11.618 83.6756 11.1419C83.1995 10.6659 82.9615 10.0946 82.9615 9.42803C82.9615 8.76151 83.1995 8.19021 83.6756 7.71413C84.1517 7.23804 84.723 7 85.3895 7C86.056 7 86.6178 7.23804 87.0748 7.71413C87.5509 8.19021 87.789 8.76151 87.789 9.42803C87.789 10.0946 87.5509 10.6659 87.0748 11.1419ZM83.3614 29.3665V13.7699H87.3605V29.3665H83.3614Z" fill="black"/>
<path d="M91.1442 29.3665V13.7699H94.9434V15.798C96.1431 14.2174 97.7618 13.4271 99.7995 13.4271C100.276 13.4271 100.637 13.4748 100.885 13.57V17.8262C100.161 17.6357 99.5329 17.5405 98.9996 17.5405C97.838 17.5405 96.8953 17.9214 96.1717 18.6831C95.448 19.4449 95.0862 20.5494 95.0862 21.9967V29.3665H91.1442Z" fill="black"/>
</svg>
