<svg width="48" height="48" viewBox="0 0 48 48" fill="none" xmlns="http://www.w3.org/2000/svg">
<rect x="7" y="7" width="34" height="34" rx="8" fill="#FFB3C7"/>
<path d="M28.408 14H24.0758C24.0872 17.5248 22.4271 20.845 19.5958 22.9486L17.8789 24.2334L24.5306 33.307H29.9998L23.8825 24.9611C26.7934 22.0617 28.4307 18.1161 28.408 14Z" fill="black"/>
<path d="M17.3435 14H13V33.307H17.3435V14Z" fill="black"/>
<path d="M33 29C31.8992 29 31 29.8992 31 31C31 32.1008 31.8992 33 33 33C34.1008 33 35 32.1008 35 31C35 29.8837 34.1008 29 33 29Z" fill="black"/>
</svg>
