<svg width="256" height="40" viewBox="0 0 256 40" fill="none" xmlns="http://www.w3.org/2000/svg">
<g clip-path="url(#clip0_1681_7309)">
<path d="M16.0147 10H11.534C11.534 13.677 9.84623 17.0325 6.91269 19.2427L5.14453 20.5688L12.0162 29.932H17.6623L11.3331 21.3122C14.3269 18.3385 16.0147 14.3199 16.0147 10Z" fill="black"/>
<path d="M4.58114 10H0V29.932H4.58114V10Z" fill="black"/>
<path d="M23.3082 10H18.9883V29.932H23.3082V10Z" fill="black"/>
<path d="M61.2023 15.7676C59.5547 15.7676 57.9875 16.2699 56.9427 17.6965V16.1493H52.8438V29.933H57.0029V22.6996C57.0029 20.6099 58.4094 19.5852 60.0972 19.5852C61.9056 19.5852 62.9504 20.6702 62.9504 22.6795V29.9531H67.0694V21.1725C67.0694 17.9577 64.5176 15.7676 61.2023 15.7676Z" fill="black"/>
<path d="M36.3686 16.1493V17.0334C35.2032 16.2297 33.7967 15.7676 32.2697 15.7676C28.2511 15.7676 24.9961 19.0226 24.9961 23.0411C24.9961 27.0597 28.2511 30.3147 32.2697 30.3147C33.7967 30.3147 35.2032 29.8526 36.3686 29.0489V29.933H40.4876V16.1493H36.3686ZM32.6112 26.5775C30.5417 26.5775 28.874 24.9901 28.874 23.0411C28.874 21.0922 30.5417 19.5048 32.6112 19.5048C34.6808 19.5048 36.3485 21.0922 36.3485 23.0411C36.3485 24.9901 34.6808 26.5775 32.6112 26.5775Z" fill="black"/>
<path d="M46.8757 17.9367V16.1484H42.6562V29.9321H46.8958V23.5024C46.8958 21.3324 49.2467 20.167 50.8742 20.167C50.8943 20.167 50.9144 20.167 50.9144 20.167V16.1484C49.2467 16.1484 47.6995 16.8718 46.8757 17.9367Z" fill="black"/>
<path d="M79.8881 16.1493V17.0334C78.7227 16.2297 77.3162 15.7676 75.7892 15.7676C71.7707 15.7676 68.5156 19.0226 68.5156 23.0411C68.5156 27.0597 71.7707 30.3147 75.7892 30.3147C77.3162 30.3147 78.7227 29.8526 79.8881 29.0489V29.933H84.0071V16.1493H79.8881ZM76.1308 26.5775C74.0612 26.5775 72.3935 24.9901 72.3935 23.0411C72.3935 21.0922 74.0612 19.5048 76.1308 19.5048C78.2003 19.5048 79.868 21.0922 79.868 23.0411C79.8881 24.9901 78.2003 26.5775 76.1308 26.5775Z" fill="black"/>
<path d="M87.2024 16.55C87.2024 16.3491 87.0618 16.2285 86.8408 16.2285H86.459V17.2733H86.6398V16.8916H86.8408L87.0015 17.2733H87.2024L87.0216 16.8514C87.1421 16.7911 87.2024 16.6906 87.2024 16.55ZM86.8408 16.7107H86.6398V16.3893H86.8408C86.9613 16.3893 87.0216 16.4495 87.0216 16.55C87.0216 16.6505 86.9814 16.7107 86.8408 16.7107Z" fill="black"/>
<path d="M86.7814 15.7871C86.2389 15.7871 85.7969 16.2291 85.7969 16.7717C85.817 17.3142 86.2389 17.7562 86.7814 17.7562C87.3239 17.7562 87.766 17.3142 87.766 16.7717C87.766 16.2291 87.3239 15.7871 86.7814 15.7871ZM86.7814 17.5754C86.3394 17.5754 85.9978 17.2137 85.9978 16.7717C85.9978 16.3296 86.3595 15.9679 86.7814 15.9679C87.2235 15.9679 87.565 16.3296 87.565 16.7717C87.565 17.2137 87.2034 17.5754 86.7814 17.5754Z" fill="black"/>
<path d="M88.4084 25.0488C86.9818 25.0488 85.8164 26.2142 85.8164 27.6408C85.8164 29.0674 86.9818 30.2328 88.4084 30.2328C89.835 30.2328 91.0003 29.0674 91.0003 27.6408C91.0003 26.1941 89.835 25.0488 88.4084 25.0488Z" fill="black"/>
</g>
<defs>
<clipPath id="clip0_1681_7309">
<rect y="10" width="91" height="20.3138" fill="white"/>
</clipPath>
</defs>
</svg>
