<svg width="48" height="48" viewBox="0 0 48 48" fill="none" xmlns="http://www.w3.org/2000/svg">
<mask id="mask0_1681_7480" style="mask-type:alpha" maskUnits="userSpaceOnUse" x="0" y="0" width="48" height="48">
<rect width="48" height="48" fill="#D9D9D9"/>
</mask>
<g mask="url(#mask0_1681_7480)">
<path d="M39.4237 35.1648C40.5249 33.7005 43.443 29.7011 43.3823 24.0267C43.3095 17.1735 38.9088 9.31527 34.0776 9.00394C29.1406 8.68597 28.522 16.5563 18.8747 22.1421C10.7248 26.8601 5.01083 24.8074 3.80035 28.3857C2.3792 32.5867 8.81738 39.6609 15.7587 42.2176C16.4945 42.4885 19.1658 43.4197 22.8095 43.3667C23.9171 43.3505 33.4948 43.0515 39.4237 35.1648Z" fill="#260661"/>
<path d="M22.6971 41.3975C24.5109 41.6664 29.4253 42.3119 34.5398 39.052C40.7169 35.1153 45.8904 26.31 44.0355 21.3322C42.1399 16.2454 34.7353 20.0683 25.4072 13.6283C17.5276 8.1875 16.86 1.3503 13.0825 2.16472C8.6476 3.12087 5.08573 13.5094 5.83945 21.8509C5.91947 22.735 6.25731 25.9154 7.91703 29.5075C8.42164 30.5992 12.9289 39.951 22.6971 41.3975Z" fill="#44D62C"/>
</g>
</svg>
