<svg width="256" height="40" viewBox="0 0 256 40" fill="none" xmlns="http://www.w3.org/2000/svg">
<path d="M2 28.6782H6.79825V7.76562H2V28.6782Z" fill="#FF882D"/>
<path d="M18.1154 13.3127C15.8134 13.3127 13.8719 14.0616 12.2632 15.5871C10.6268 17.1125 9.82251 18.9431 9.82251 21.1342C9.82251 23.2975 10.6268 25.1281 12.2632 26.6535C13.8719 28.179 15.8134 28.9279 18.1154 28.9279C20.3898 28.9279 22.3313 28.179 23.9677 26.6535C25.5763 25.1281 26.3806 23.2975 26.3806 21.1342C26.3806 18.9708 25.5763 17.1125 23.9677 15.5871C22.3313 14.0616 20.3898 13.3127 18.1154 13.3127ZM18.1154 24.7121C17.117 24.7121 16.2572 24.3515 15.5638 23.6581C14.8704 22.9647 14.5098 22.1049 14.5098 21.1342C14.5098 20.1357 14.8704 19.2759 15.5638 18.5825C16.2572 17.8891 17.117 17.5285 18.1154 17.5285C19.0862 17.5285 19.946 17.8891 20.6394 18.5825C21.3328 19.2759 21.6933 20.1357 21.6933 21.1342C21.6933 22.1049 21.3328 22.9647 20.6394 23.6581C19.946 24.3515 19.0862 24.7121 18.1154 24.7121Z" fill="#FF882D"/>
<path d="M39.9206 22.9924C39.2549 24.1296 38.2842 24.7121 36.9806 24.7121C35.9821 24.7121 35.1223 24.3515 34.4289 23.6581C33.7356 22.9647 33.375 22.1049 33.375 21.1342C33.375 20.1357 33.7356 19.2759 34.4289 18.5825C35.1223 17.8891 35.9821 17.5285 36.9806 17.5285C38.2842 17.5285 39.2549 18.111 39.9206 19.2481L42.9715 16.4191C42.2781 15.4484 41.3906 14.6995 40.3643 14.1448C39.3381 13.5901 38.201 13.3127 36.9806 13.3127C34.6786 13.3127 32.7371 14.0616 31.1284 15.5871C29.492 17.1125 28.6877 18.9431 28.6877 21.1342C28.6877 23.2975 29.492 25.1281 31.1284 26.6535C32.7371 28.179 34.6786 28.9279 36.9806 28.9279C38.1732 28.9279 39.2827 28.6505 40.3366 28.0681C41.3628 27.5133 42.2226 26.7367 42.916 25.766L39.9206 22.9924Z" fill="#FF882D"/>
<path d="M55.5992 19.5255L60.8967 13.5901H55.3773L50.5236 18.8044V7.76562H45.7531V28.6782H50.5236V25.2113L52.4651 23.2421L55.7379 28.6782H61.0076L55.5992 19.5255Z" fill="#FF882D"/>
<path d="M76.6572 22.4655L76.6849 21.4393C76.6849 19.0263 76.047 17.057 74.7435 15.5593C73.4399 14.0616 71.6371 13.3127 69.335 13.3127C67.0884 13.3127 65.2301 14.0616 63.7602 15.5593C62.2902 17.0848 61.5691 18.9431 61.5691 21.1342C61.5691 23.3253 62.2902 25.1836 63.7602 26.6813C65.2301 28.179 67.0884 28.9279 69.335 28.9279C70.805 28.9279 72.164 28.6505 73.3567 28.0681C74.5493 27.5133 75.4923 26.7367 76.1857 25.7383L73.1903 23.2698C72.8297 23.7968 72.3305 24.2406 71.6925 24.5734C71.0546 24.9339 70.4444 25.1004 69.8343 25.1004C69.0022 25.1004 68.2811 24.8785 67.6709 24.407C67.0607 23.9632 66.6169 23.3253 66.3396 22.4655H76.6572ZM66.3396 19.6919C66.5337 18.9153 66.8943 18.2774 67.4213 17.7782C67.9482 17.2789 68.5862 17.0293 69.335 17.0293C70.3612 17.0293 71.1101 17.3067 71.5261 17.8336C71.9422 18.3883 72.164 18.9985 72.164 19.6919H66.3396Z" fill="#FF882D"/>
<path d="M84.4342 13.5901H79.6637V28.6782H84.4342V21.6057C84.5452 19.4423 85.7101 18.3606 87.9012 18.3606C88.3727 18.3606 88.8996 18.4161 89.5098 18.527V13.3405C89.4266 13.3127 89.2602 13.3127 89.066 13.3127C87.1523 13.3405 85.6268 13.9784 84.4342 15.2542V13.5901Z" fill="#FF882D"/>
<path d="M102.483 13.8284C100.604 13.8284 98.9832 14.3437 97.6709 15.3486V14.086H95.5352V32.5353H97.6709V26.7119C99.0346 27.6911 100.656 28.1806 102.483 28.1806C104.49 28.1806 106.188 27.4849 107.577 26.1193C108.967 24.7536 109.662 23.053 109.662 20.9916C109.662 18.956 108.967 17.2296 107.577 15.864C106.188 14.4983 104.49 13.8284 102.483 13.8284ZM102.174 26.2739C100.295 26.2739 98.8031 25.7328 97.6709 24.6506V17.41C98.8288 16.302 100.321 15.7351 102.174 15.7351C103.692 15.7351 104.953 16.2505 105.982 17.2554C107.011 18.2603 107.526 19.5229 107.526 20.9916C107.526 22.4861 107.011 23.7487 105.982 24.7536C104.953 25.7585 103.692 26.2739 102.174 26.2739Z" fill="#260661"/>
<path d="M112.618 28.026H114.753V14.086H112.618V28.026ZM113.698 11.767C114.059 11.767 114.367 11.6381 114.625 11.3805C114.882 11.1228 115.011 10.8136 115.011 10.4271C115.011 10.0406 114.882 9.73138 114.625 9.4737C114.367 9.2418 114.059 9.11296 113.698 9.11296C113.312 9.11296 113.004 9.2418 112.746 9.4737C112.463 9.73138 112.335 10.0406 112.335 10.4271C112.335 10.8136 112.463 11.1228 112.746 11.3805C113.004 11.6381 113.312 11.767 113.698 11.767Z" fill="#260661"/>
<path d="M129.066 24.3156C128.063 25.6297 126.802 26.2739 125.258 26.2739C123.74 26.2739 122.453 25.7585 121.398 24.7279C120.317 23.6972 119.777 22.4603 119.777 21.0174C119.777 19.5487 120.317 18.3118 121.398 17.2811C122.453 16.2505 123.74 15.7351 125.258 15.7351C126.802 15.7351 128.063 16.3793 129.066 17.6419L130.481 16.3535C129.143 14.6787 127.394 13.8284 125.258 13.8284C123.174 13.8284 121.372 14.5241 119.906 15.9155C118.413 17.3327 117.667 19.0333 117.667 21.0174C117.667 23.0015 118.413 24.6763 119.906 26.0677C121.372 27.4849 123.174 28.1806 125.258 28.1806C127.368 28.1806 129.092 27.3303 130.456 25.6039L129.066 24.3156Z" fill="#260661"/>
<path d="M141.083 19.4456L146.461 14.086H143.836L135.37 22.3057V8.59762H133.235V28.026H135.37V25.1144L139.642 21.0689L144.068 28.026H146.486L141.083 19.4456Z" fill="#260661"/>
<path d="M158.956 14.086V24.7021C157.747 25.7585 156.254 26.2739 154.479 26.2739C153.218 26.2739 152.189 25.8874 151.443 25.1401C150.671 24.3929 150.285 23.3107 150.285 21.8935V14.086H148.175V21.8935C148.175 23.9806 148.689 25.5524 149.744 26.6089C150.774 27.6653 152.24 28.1806 154.144 28.1806C156.1 28.1806 157.695 27.6395 158.956 26.5831V28.026H161.092V14.086H158.956Z" fill="#260661"/>
<path d="M171.681 13.8284C169.803 13.8284 168.182 14.3437 166.869 15.3486V14.086H164.734V32.5353H166.869V26.7119C168.233 27.6911 169.854 28.1806 171.681 28.1806C173.688 28.1806 175.387 27.4849 176.776 26.1193C178.166 24.7536 178.86 23.053 178.86 20.9916C178.86 18.956 178.166 17.2296 176.776 15.864C175.387 14.4983 173.688 13.8284 171.681 13.8284ZM171.372 26.2739C169.494 26.2739 168.002 25.7328 166.869 24.6506V17.41C168.027 16.302 169.52 15.7351 171.372 15.7351C172.891 15.7351 174.151 16.2505 175.181 17.2554C176.21 18.2603 176.725 19.5229 176.725 20.9916C176.725 22.4861 176.21 23.7487 175.181 24.7536C174.151 25.7585 172.891 26.2739 171.372 26.2739Z" fill="#260661"/>
<path d="M192.965 26.145C193.531 25.707 194.303 25.2174 195.306 24.6763C196.284 24.1352 197.159 23.6456 197.931 23.2076C198.677 22.7695 199.449 22.2284 200.195 21.61C200.942 21.0174 201.508 20.2701 201.945 19.3941C202.357 18.5437 202.563 17.5646 202.563 16.4566C202.563 14.5756 201.894 12.978 200.556 11.6639C199.192 10.3498 197.622 9.70561 195.795 9.70561C193.943 9.70561 192.347 10.3498 191.035 11.6381C189.697 12.9265 189.028 14.5241 189.028 16.4308V16.8431H190.983V16.5597C191.009 15.1425 191.498 13.9572 192.45 13.0553C193.402 12.1535 194.509 11.7154 195.769 11.7154C197.056 11.7154 198.163 12.1793 199.115 13.1326C200.067 14.086 200.53 15.2198 200.53 16.5854C200.53 17.5904 200.273 18.4407 199.758 19.1879C199.218 19.9352 198.523 20.5793 197.622 21.1205C196.722 21.6616 195.795 22.2027 194.843 22.6922C193.865 23.1818 192.836 23.826 191.755 24.5732C190.649 25.3463 189.748 26.1966 189.028 27.1242V28.026H202.64V26.145H192.965Z" fill="#260661"/>
<path d="M216.544 21.5585V9.86021H214.872L204.065 22.383L204.502 23.4137H214.383V28.026H216.544V23.4137H219.298V21.5585H216.544ZM207.204 21.5585L214.383 13.2099V21.5585H207.204Z" fill="#260661"/>
<path d="M218.697 31.3242H220.55L231.949 7.46387H230.096L218.697 31.3242Z" fill="#260661"/>
<path d="M232.056 9.86021V11.7412H242.22L233.883 28.026H236.276L244.999 10.9167V9.86021H232.056Z" fill="#260661"/>
</svg>
