<svg width="256" height="40" viewBox="0 0 256 40" fill="none" xmlns="http://www.w3.org/2000/svg">
<path d="M12.7869 9.90772H16.3961V28.2889H14.5141L3.6092 16.6879V28.1858H0V9.8046H1.83038L12.7869 21.4056V9.90772Z" fill="black"/>
<path d="M33.6296 21.1478C33.6296 21.6634 33.621 22.0157 33.6038 22.2048H22.6731C22.8622 23.2532 23.309 24.061 24.0137 24.6281C24.7355 25.1953 25.6722 25.4789 26.8237 25.4789C28.5767 25.4789 29.9345 24.8773 30.8969 23.6743L33.1398 25.582C31.7477 27.5069 29.5564 28.4693 26.5659 28.4693C24.2285 28.4693 22.3895 27.8076 21.049 26.4843C19.7256 25.1609 19.0639 23.3649 19.0639 21.0962C19.0639 18.8792 19.7428 17.1003 21.1005 15.7598C22.4583 14.402 24.2199 13.7232 26.3854 13.7232C28.74 13.7232 30.536 14.402 31.7735 15.7598C33.0109 17.1003 33.6296 18.8964 33.6296 21.1478ZM26.3854 16.6879C25.4402 16.6879 24.641 16.9371 23.9879 17.4355C23.3348 17.9167 22.9051 18.6471 22.6989 19.6268H30.1493C30.029 18.7846 29.6595 18.0886 29.0408 17.5386C28.4221 16.9714 27.537 16.6879 26.3854 16.6879Z" fill="black"/>
<path d="M49.3554 28.1858H45.2306L41.8792 23.5711L38.5278 28.1858H34.4546L39.6106 20.9673L34.5319 14.1099H38.7083L41.8792 18.544L45.1017 14.1099H49.2781L44.2252 20.9158L49.3554 28.1858Z" fill="black"/>
<path d="M56.2065 28.5209C54.6597 28.5209 53.5339 28.1428 52.8293 27.3866C52.1418 26.6304 51.7981 25.4445 51.7981 23.8289V17.2808H49.7873V14.1099H51.7981V8.6445H55.3042V14.1099H59.4548V17.2808H55.3042V23.236C55.3042 24.0438 55.4331 24.6195 55.6909 24.9633C55.9659 25.307 56.4557 25.4789 57.1603 25.4789C57.9681 25.4789 58.7243 25.3242 59.429 25.0148V28.1342C58.5696 28.392 57.4955 28.5209 56.2065 28.5209Z" fill="black"/>
<path d="M67.1187 28.1858V9.90772H74.234C77.1041 9.90772 79.3298 10.6639 80.911 12.1764C82.4922 13.6888 83.2827 15.9059 83.2827 18.8276C83.2827 21.7493 82.5093 24.0438 80.9625 25.7109C79.4157 27.3608 77.1987 28.1858 74.3113 28.1858H67.1187ZM70.6763 24.8344H74.3629C75.9097 24.8344 77.1471 24.3273 78.0752 23.3133C79.0033 22.2993 79.4673 20.8041 79.4673 18.8276C79.4673 17.0402 79.0119 15.6739 78.101 14.7286C77.1901 13.7661 75.9097 13.2849 74.2597 13.2849H70.6763V24.8344Z" fill="black"/>
<path d="M92.0822 28.4951C90.0198 28.4951 88.3699 27.8334 87.1324 26.5101C85.895 25.1695 85.2763 23.3735 85.2763 21.122C85.2763 18.8878 85.8864 17.1089 87.1067 15.7856C88.3269 14.445 89.9339 13.7747 91.9275 13.7747C93.7665 13.7747 95.2102 14.2903 96.2586 15.3215V14.1099H99.7646V28.1858H96.3101V26.8194C95.382 27.9365 93.9727 28.4951 92.0822 28.4951ZM92.8556 25.2984C94.4711 25.2984 95.6227 24.6797 96.3101 23.4422V18.776C95.9664 18.2089 95.468 17.7706 94.8149 17.4613C94.1618 17.1347 93.4829 16.9714 92.7783 16.9714C91.6267 16.9714 90.6987 17.341 89.994 18.08C89.2894 18.8018 88.937 19.8158 88.937 21.122C88.937 22.411 89.2894 23.4336 89.994 24.1899C90.6987 24.9289 91.6525 25.2984 92.8556 25.2984Z" fill="black"/>
<path d="M112.865 14.1099H116.655L110.88 28.3404C110.467 29.3888 110.003 30.2482 109.488 30.9184C108.972 31.5887 108.422 32.0699 107.838 32.3621C107.253 32.6715 106.712 32.8777 106.214 32.9808C105.732 33.084 105.165 33.1355 104.512 33.1355C103.601 33.1355 102.836 33.0324 102.218 32.8262V29.7583C102.974 29.999 103.653 30.1193 104.254 30.1193C105.715 30.1193 106.772 29.4833 107.425 28.2115L101.109 14.1099H105.079L109.075 23.9321L112.865 14.1099Z" fill="black"/>
<path d="M123.915 28.1858V9.90772H131.031C133.901 9.90772 136.126 10.6639 137.708 12.1764C139.289 13.6888 140.079 15.9059 140.079 18.8276C140.079 21.7493 139.306 24.0438 137.759 25.7109C136.212 27.3608 133.995 28.1858 131.108 28.1858H123.915ZM127.473 24.8344H131.159C132.706 24.8344 133.944 24.3273 134.872 23.3133C135.8 22.2993 136.264 20.8041 136.264 18.8276C136.264 17.0402 135.808 15.6739 134.898 14.7286C133.987 13.7661 132.706 13.2849 131.056 13.2849H127.473V24.8344Z" fill="black"/>
<path d="M156.639 21.1478C156.639 21.6634 156.63 22.0157 156.613 22.2048H145.682C145.871 23.2532 146.318 24.061 147.023 24.6281C147.744 25.1953 148.681 25.4789 149.833 25.4789C151.586 25.4789 152.943 24.8773 153.906 23.6743L156.149 25.582C154.757 27.5069 152.565 28.4693 149.575 28.4693C147.237 28.4693 145.398 27.8076 144.058 26.4843C142.735 25.1609 142.073 23.3649 142.073 21.0962C142.073 18.8792 142.752 17.1003 144.109 15.7598C145.467 14.402 147.229 13.7232 149.394 13.7232C151.749 13.7232 153.545 14.402 154.782 15.7598C156.02 17.1003 156.639 18.8964 156.639 21.1478ZM149.394 16.6879C148.449 16.6879 147.65 16.9371 146.997 17.4355C146.344 17.9167 145.914 18.6471 145.708 19.6268H153.158C153.038 18.7846 152.668 18.0886 152.05 17.5386C151.431 16.9714 150.546 16.6879 149.394 16.6879Z" fill="black"/>
<path d="M158.959 28.1858V8.6445H162.516V28.1858H158.959Z" fill="black"/>
<path d="M169.259 11.7381C168.846 12.1678 168.339 12.3826 167.738 12.3826C167.136 12.3826 166.621 12.1678 166.191 11.7381C165.761 11.3084 165.546 10.7928 165.546 10.1913C165.546 9.58977 165.761 9.07417 166.191 8.6445C166.621 8.21483 167.136 8 167.738 8C168.339 8 168.846 8.21483 169.259 8.6445C169.688 9.07417 169.903 9.58977 169.903 10.1913C169.903 10.7928 169.688 11.3084 169.259 11.7381ZM165.907 28.1858V14.1099H169.517V28.1858H165.907Z" fill="black"/>
<path d="M182.754 14.1099H186.672L180.047 28.2631H177.984L171.333 14.1099H175.38L177.804 19.9104L179.041 23.1587L180.279 19.9619L182.754 14.1099Z" fill="black"/>
<path d="M201.502 21.1478C201.502 21.6634 201.493 22.0157 201.476 22.2048H190.545C190.734 23.2532 191.181 24.061 191.886 24.6281C192.608 25.1953 193.544 25.4789 194.696 25.4789C196.449 25.4789 197.807 24.8773 198.769 23.6743L201.012 25.582C199.62 27.5069 197.429 28.4693 194.438 28.4693C192.101 28.4693 190.262 27.8076 188.921 26.4843C187.598 25.1609 186.936 23.3649 186.936 21.0962C186.936 18.8792 187.615 17.1003 188.973 15.7598C190.33 14.402 192.092 13.7232 194.258 13.7232C196.612 13.7232 198.408 14.402 199.646 15.7598C200.883 17.1003 201.502 18.8964 201.502 21.1478ZM194.258 16.6879C193.312 16.6879 192.513 16.9371 191.86 17.4355C191.207 17.9167 190.777 18.6471 190.571 19.6268H198.022C197.901 18.7846 197.532 18.0886 196.913 17.5386C196.294 16.9714 195.409 16.6879 194.258 16.6879Z" fill="black"/>
<path d="M203.822 28.1858V14.1099H207.251V15.9402C208.334 14.5138 209.794 13.8005 211.633 13.8005C212.063 13.8005 212.39 13.8435 212.613 13.9294V17.7706C211.96 17.5988 211.393 17.5128 210.912 17.5128C209.863 17.5128 209.012 17.8566 208.359 18.544C207.706 19.2315 207.38 20.2283 207.38 21.5345V28.1858H203.822Z" fill="black"/>
<path d="M224.696 14.1099H228.485L222.711 28.3404C222.298 29.3888 221.834 30.2482 221.319 30.9184C220.803 31.5887 220.253 32.0699 219.669 32.3621C219.084 32.6715 218.543 32.8777 218.045 32.9808C217.563 33.084 216.996 33.1355 216.343 33.1355C215.432 33.1355 214.667 33.0324 214.049 32.8262V29.7583C214.805 29.999 215.484 30.1193 216.085 30.1193C217.546 30.1193 218.603 29.4833 219.256 28.2115L212.94 14.1099H216.91L220.906 23.9321L224.696 14.1099Z" fill="black"/>
</svg>
