<svg width="48" height="48" viewBox="0 0 48 48" fill="none" xmlns="http://www.w3.org/2000/svg">
<path fill-rule="evenodd" clip-rule="evenodd" d="M24.2983 40.1613L25.3838 33.2784L25.4538 32.897C25.5061 32.5653 25.6759 32.2619 25.9318 32.0434C26.1876 31.825 26.5139 31.7045 26.8503 31.7045H27.7122C29.1489 31.7045 30.4688 31.551 31.6356 31.2483C32.8803 30.9257 33.9876 30.4231 34.9261 29.7557C35.9211 29.048 36.7569 28.1331 37.4105 27.0371C38.1 25.8809 38.6063 24.4888 38.9155 22.9C39.1888 21.497 39.2399 20.241 39.0683 19.1664C38.8865 18.0312 38.4492 17.0626 37.7687 16.2867C37.3561 15.8168 36.8281 15.4096 36.1995 15.0764L36.1846 15.0685L36.1843 15.0503C36.4038 13.6498 36.3955 12.4816 36.1592 11.476C35.9219 10.4682 35.4414 9.56133 34.6891 8.70415C33.1304 6.92808 30.2954 6.02734 26.2631 6.02734H15.189C14.8188 6.02734 14.4595 6.1598 14.1779 6.40041C13.8963 6.64102 13.7098 6.97526 13.6517 7.34107L9.04061 36.5816C8.99851 36.8483 9.07509 37.1194 9.25073 37.3241C9.42638 37.5299 9.68187 37.6478 9.95187 37.6478H16.8221L16.8159 37.6805L16.3441 40.6723C16.3078 40.9049 16.3746 41.1408 16.5274 41.3194C16.6802 41.4983 16.9026 41.6013 17.1378 41.6013H22.9C23.2234 41.6013 23.5366 41.4856 23.7823 41.2754C24.028 41.0653 24.1913 40.7739 24.2417 40.4549L24.2983 40.1613Z" fill="#27346A"/>
<path fill-rule="evenodd" clip-rule="evenodd" d="M20.3494 15.089C20.4224 14.6256 20.7196 14.2463 21.1199 14.0544C21.3021 13.9673 21.5053 13.9186 21.7183 13.9186H30.3987C31.4272 13.9186 32.386 13.9861 33.2628 14.1273C33.5132 14.1676 33.7567 14.214 33.9937 14.2667C34.2306 14.3193 34.4603 14.3777 34.6828 14.443C34.7942 14.4753 34.9035 14.5094 35.0112 14.5454C35.4416 14.6884 35.8423 14.8568 36.211 15.052C36.6458 12.2805 36.2081 10.3944 34.7089 8.68624C33.0584 6.80565 30.0768 6 26.2619 6H15.1878C14.4083 6 13.7445 6.56722 13.6229 7.33731L9.01184 36.5778C8.92075 37.1549 9.36677 37.6764 9.95068 37.6764H16.7871L20.3494 15.089Z" fill="#27346A"/>
<path fill-rule="evenodd" clip-rule="evenodd" d="M36.2107 15.0527C36.1776 15.2643 36.141 15.4795 36.0974 15.7012C34.6375 23.1993 29.641 25.7915 23.2596 25.7915H20.0101C19.2306 25.7915 18.5723 26.3591 18.4507 27.1292L16.315 40.6696C16.2355 41.1741 16.6256 41.6306 17.1363 41.6306H22.8989C23.5808 41.6306 24.1614 41.1345 24.2677 40.4606L24.3244 40.1677L25.4098 33.2841L25.4799 32.9038C25.5862 32.2299 26.1668 31.7338 26.8487 31.7338H27.7106C33.2933 31.7338 37.6645 29.4656 38.9419 22.9064C39.4754 20.1657 39.1996 17.878 37.7882 16.2696C37.3614 15.7833 36.8301 15.3808 36.2107 15.0527Z" fill="#2790C3"/>
<path fill-rule="evenodd" clip-rule="evenodd" d="M34.6829 14.4443C34.4605 14.379 34.2307 14.3206 33.9938 14.2679C33.7568 14.2153 33.5133 14.1689 33.2629 14.1286C32.3861 13.9874 31.4273 13.9199 30.3988 13.9199H21.7184C21.5054 13.9199 21.3022 13.9686 21.12 14.0556C20.7197 14.2476 20.4225 14.6269 20.3495 15.0903L18.5045 26.7883L18.4512 27.1297C18.5727 26.3597 19.2311 25.7921 20.0106 25.7921H23.2601C29.6414 25.7921 34.6379 23.1998 36.0979 15.7018C36.1414 15.4801 36.1781 15.2649 36.2111 15.0533C35.8424 14.858 35.4418 14.6896 35.0114 14.5467C34.9036 14.5107 34.7943 14.4766 34.6829 14.4443Z" fill="#1F264F"/>
</svg>
