<svg width="256" height="40" viewBox="0 0 256 40" fill="none" xmlns="http://www.w3.org/2000/svg">
<path d="M18.3228 7.40022C16.966 6.46749 15.1956 6 13.0114 6H4.5555C3.88593 6 3.516 6.33487 3.44574 7.00396L0.0107823 28.5661C-0.0249177 28.7779 0.0280667 28.9716 0.169251 29.1477C0.309628 29.3241 0.48619 29.4118 0.697644 29.4118H4.71414C5.41861 29.4118 5.80581 29.0777 5.87689 28.4078L6.82803 22.5947C6.86276 22.313 6.98666 22.0839 7.19811 21.9075C7.4094 21.7314 7.67368 21.6162 7.99078 21.5636C8.30788 21.5112 8.60689 21.4848 8.88926 21.4848C9.17082 21.4848 9.50537 21.5027 9.89354 21.5377C10.2808 21.5728 10.5276 21.5901 10.6334 21.5901C13.6632 21.5901 16.0414 20.7363 17.7681 19.0269C19.4939 17.3185 20.3578 14.9494 20.3578 11.9186C20.3578 9.83993 19.6789 8.33391 18.3228 7.39973V7.40022ZM13.963 13.8747C13.7863 15.108 13.3288 15.918 12.589 16.3057C11.849 16.6938 10.792 16.887 9.41813 16.887L7.674 16.9397L8.57264 11.2847C8.64275 10.8975 8.87165 10.7037 9.2595 10.7037H10.264C11.6726 10.7037 12.6949 10.9067 13.3291 11.3112C13.963 11.7167 14.1745 12.5714 13.963 13.8747Z" fill="#003087"/>
<path d="M107.558 6H103.648C103.259 6 103.031 6.19385 102.961 6.5817L99.5256 28.5671L99.4727 28.6727C99.4727 28.8498 99.5431 29.0163 99.6844 29.175C99.8245 29.3333 100.002 29.4126 100.213 29.4126H103.701C104.37 29.4126 104.74 29.0785 104.811 28.4086L108.246 6.79315V6.74065C108.246 6.24715 108.016 6.00065 107.558 6.00065V6Z" fill="#009CDE"/>
<path d="M60.3114 14.5094C60.3114 14.3336 60.2406 14.1659 60.1006 14.0078C59.9592 13.8493 59.8006 13.7695 59.6248 13.7695H55.5555C55.1672 13.7695 54.8501 13.9466 54.6039 14.2979L49.0021 22.5427L46.6767 14.6153C46.4997 14.0521 46.1126 13.7695 45.5141 13.7695H41.5498C41.3733 13.7695 41.2148 13.849 41.0747 14.0078C40.9334 14.1659 40.8633 14.3339 40.8633 14.5094C40.8633 14.5803 41.2069 15.6193 41.8937 17.6276C42.5806 19.6364 43.3204 21.8033 44.1133 24.1288C44.9061 26.4539 45.3198 27.6877 45.3552 27.8274C42.4659 31.7741 41.0219 33.888 41.0219 34.1694C41.0219 34.6279 41.2505 34.8566 41.7089 34.8566H45.7782C46.1656 34.8566 46.4826 34.6808 46.7297 34.3284L60.2064 14.8791C60.2763 14.8094 60.3114 14.6866 60.3114 14.5092V14.5094Z" fill="#003087"/>
<path d="M98.2055 13.7703H94.1888C93.695 13.7703 93.3966 14.3519 93.2908 15.5148C92.3736 14.1058 90.7012 13.4004 88.2696 13.4004C85.7329 13.4004 83.5746 14.3519 81.7957 16.2545C80.0162 18.1571 79.127 20.395 79.127 22.9667C79.127 25.0459 79.7347 26.7016 80.9499 27.9343C82.1655 29.1683 83.7948 29.7841 85.839 29.7841C86.8606 29.7841 87.9 29.5723 88.9569 29.1499C90.0138 28.7272 90.8411 28.1637 91.4412 27.4588C91.4412 27.4941 91.4052 27.6521 91.3355 27.9338C91.2643 28.2162 91.2296 28.4283 91.2296 28.568C91.2296 29.1325 91.458 29.4135 91.9168 29.4135H95.5637C96.2323 29.4135 96.6203 29.0795 96.7256 28.4096L98.8928 14.6158C98.9275 14.4042 98.8749 14.2108 98.7342 14.0344C98.5925 13.8587 98.4168 13.7703 98.2055 13.7703ZM91.3087 24.1821C90.4103 25.063 89.3267 25.5032 88.0584 25.5032C87.0362 25.5032 86.209 25.2218 85.5744 24.6577C84.9399 24.0952 84.6228 23.32 84.6228 22.3323C84.6228 21.0297 85.0633 19.9277 85.9445 19.0294C86.8241 18.1309 87.9174 17.6818 89.221 17.6818C90.2067 17.6818 91.026 17.9724 91.6785 18.5535C92.3297 19.135 92.6566 19.9366 92.6566 20.9586C92.6563 22.2269 92.207 23.3017 91.3087 24.1821Z" fill="#009CDE"/>
<path d="M38.1669 13.7703H34.1502C33.6562 13.7703 33.3574 14.3519 33.2516 15.5148C32.3003 14.1058 30.6266 13.4004 28.2308 13.4004C25.694 13.4004 23.5357 14.3519 21.7567 16.2545C19.9772 18.1571 19.0879 20.395 19.0879 22.9667C19.0879 25.0459 19.6958 26.7016 20.9113 27.9343C22.1269 29.1683 23.756 29.7841 25.7998 29.7841C26.7858 29.7841 27.8082 29.5723 28.865 29.1499C29.922 28.7272 30.7676 28.1637 31.4018 27.4588C31.2605 27.8812 31.1904 28.2513 31.1904 28.568C31.1904 29.1325 31.4193 29.4135 31.8774 29.4135H35.5239C36.1929 29.4135 36.5809 29.0795 36.6867 28.4096L38.8534 14.6158C38.8881 14.4042 38.8355 14.2108 38.6949 14.0344C38.5539 13.8587 38.378 13.7703 38.1669 13.7703ZM31.27 24.2083C30.3714 25.0725 29.2698 25.5032 27.967 25.5032C26.9446 25.5032 26.1255 25.2218 25.5094 24.6577C24.8925 24.0952 24.5844 23.32 24.5844 22.3323C24.5844 21.0297 25.0246 19.9277 25.9058 19.0294C26.786 18.1309 27.8783 17.6816 29.1824 17.6816C30.1685 17.6816 30.9876 17.9724 31.6401 18.5535C32.2914 19.135 32.6177 19.9366 32.6177 20.9586C32.6175 22.2622 32.1685 23.346 31.27 24.2083Z" fill="#003087"/>
<path d="M78.3602 7.40022C77.0036 6.46749 75.2336 6 73.049 6H64.6458C63.941 6 63.5531 6.33487 63.4832 7.00396L60.0479 28.5661C60.0122 28.7779 60.0652 28.9716 60.2065 29.1477C60.3463 29.3241 60.5233 29.4118 60.7347 29.4118H65.0682C65.4909 29.4118 65.7727 29.183 65.914 28.7249L66.8653 22.5947C66.9004 22.313 67.0236 22.0839 67.2354 21.9075C67.4468 21.7314 67.7108 21.6162 68.0282 21.5636C68.345 21.5112 68.644 21.4848 68.9265 21.4848C69.2083 21.4848 69.5426 21.5027 69.9305 21.5377C70.3179 21.5728 70.5653 21.5901 70.6703 21.5901C73.7008 21.5901 76.0785 20.7363 77.8052 19.0269C79.5317 17.3185 80.3948 14.9494 80.3948 11.9186C80.395 9.83993 79.7163 8.33375 78.3602 7.39973V7.40022ZM72.9433 16.0941C72.1681 16.6224 71.0052 16.8866 69.4554 16.8866L67.7639 16.9395L68.6624 11.2844C68.7322 10.8974 68.9613 10.7032 69.3493 10.7032H70.3003C71.0755 10.7032 71.6919 10.7386 72.1507 10.8088C72.6078 10.8796 73.049 11.0994 73.4717 11.4692C73.8948 11.8393 74.1059 12.3769 74.1059 13.0812C74.1059 14.5615 73.7179 15.5652 72.9433 16.0941Z" fill="#009CDE"/>
</svg>
