<svg width="256" height="40" viewBox="0 0 256 40" fill="none" xmlns="http://www.w3.org/2000/svg">
<path d="M0 12.6242V27.6907H1.8379V23.0746H5.38549C7.2875 23.0746 8.78347 22.6472 9.87339 21.771C10.9633 20.8948 11.4976 19.5484 11.4976 17.7105C11.4976 16.2359 11.0488 15.0177 10.1726 14.056C9.275 13.0944 7.86452 12.6242 5.9625 12.6242H0ZM1.8379 21.5573V14.1843H5.70605C7.05242 14.1843 8.03549 14.5262 8.65524 15.2101C9.275 15.894 9.5742 16.7702 9.5742 17.8173C9.5742 19.0355 9.18952 19.9758 8.44154 20.5956C7.69355 21.2367 6.625 21.5573 5.23589 21.5573H1.8379Z" fill="black"/>
<path d="M23.2097 16.129V24.9339C22.2053 25.8101 20.9658 26.2375 19.4912 26.2375C18.444 26.2375 17.5891 25.9169 16.9694 25.2972C16.3283 24.6774 16.0077 23.7798 16.0077 22.6044V16.129H14.2553V22.6044C14.2553 24.3355 14.6827 25.6391 15.5589 26.5153C16.4137 27.3915 17.6319 27.819 19.2133 27.819C20.8375 27.819 22.1625 27.3702 23.2097 26.494V27.6907H24.9835V16.129H23.2097Z" fill="black"/>
<path d="M34.4195 15.9153C32.9021 15.9153 31.5557 16.3214 30.4231 17.1335V11.577H28.6493V27.6907H30.4231V26.5581C31.513 27.3915 32.8594 27.819 34.4195 27.819C36.0864 27.819 37.4969 27.2419 38.6509 26.1093C39.8049 24.9766 40.382 23.5661 40.382 21.8778C40.382 20.1681 39.8049 18.7363 38.6509 17.6036C37.4969 16.471 36.0864 15.9153 34.4195 15.9153ZM34.163 26.2375C32.6457 26.2375 31.3848 25.7673 30.4231 24.8484V18.8431C31.3634 17.9456 32.6029 17.4968 34.163 17.4968C35.4239 17.4968 36.4711 17.9242 37.3259 18.7577C38.1807 19.6125 38.6082 20.6597 38.6082 21.8778C38.6082 23.1173 38.1807 24.1432 37.3259 24.9766C36.4711 25.8101 35.4239 26.2375 34.163 26.2375Z" fill="black"/>
<path d="M43.415 27.6907H45.2101V11.577H43.415V27.6907Z" fill="black"/>
<path d="M48.9769 27.6907H50.7507V16.129H48.9769V27.6907ZM49.8745 14.2056C50.1737 14.2056 50.4302 14.0988 50.6439 13.8851C50.8576 13.6714 50.9644 13.4149 50.9644 13.0944C50.9644 12.7738 50.8576 12.5173 50.6439 12.3036C50.4302 12.1113 50.1737 12.0044 49.8745 12.0044C49.554 12.0044 49.2975 12.1113 49.0838 12.3036C48.8487 12.5173 48.7418 12.7738 48.7418 13.0944C48.7418 13.4149 48.8487 13.6714 49.0838 13.8851C49.2975 14.0988 49.554 14.2056 49.8745 14.2056Z" fill="black"/>
<path d="M63.2791 24.6133C62.4457 25.7032 61.3985 26.2375 60.1162 26.2375C58.8553 26.2375 57.7868 25.8101 56.9106 24.9552C56.013 24.1004 55.5642 23.0746 55.5642 21.8778C55.5642 20.6597 56.013 19.6339 56.9106 18.779C57.7868 17.9242 58.8553 17.4968 60.1162 17.4968C61.3985 17.4968 62.4457 18.0311 63.2791 19.0782L64.4545 18.0097C63.3432 16.6206 61.89 15.9153 60.1162 15.9153C58.3852 15.9153 56.8892 16.4923 55.6711 17.6464C54.4315 18.8218 53.8118 20.2323 53.8118 21.8778C53.8118 23.5234 54.4315 24.9125 55.6711 26.0665C56.8892 27.2419 58.3852 27.819 60.1162 27.819C61.8686 27.819 63.3005 27.1137 64.4332 25.6819L63.2791 24.6133Z" fill="black"/>
<path d="M77.4055 15.9367C77.4055 14.9964 77.0849 14.2056 76.4652 13.5645C75.8454 12.9448 75.0761 12.6242 74.1785 12.6242H67.1688V27.6907H75.8027C77.2345 27.6907 78.3458 27.2206 79.1579 26.3016C79.9487 25.3827 80.3547 24.25 80.3547 22.925C80.3547 21.7282 79.97 20.6811 79.222 19.7835C78.4527 18.9073 77.491 18.373 76.3156 18.202C77.0422 17.625 77.4055 16.8556 77.4055 15.9367ZM70.8446 15.8298H72.7466C73.174 15.8298 73.4946 15.9153 73.7297 16.1077C73.9648 16.3 74.0716 16.5565 74.0716 16.8343C74.0716 17.1121 73.9648 17.3472 73.7511 17.5395C73.5374 17.7319 73.2168 17.8387 72.8107 17.8387H70.8446V15.8298ZM70.866 24.4851V20.5742H73.687C74.5845 20.5742 75.2684 20.7665 75.7172 21.1512C76.166 21.5359 76.3797 21.9847 76.3797 22.519C76.3797 23.8226 75.4821 24.4851 73.6656 24.4851H70.866Z" fill="black"/>
<path d="M90.1403 16.0649V23.9294C89.606 24.3996 88.9435 24.6347 88.1528 24.6347C87.4689 24.6347 86.9774 24.4637 86.6568 24.1004C86.3362 23.7585 86.1866 23.2028 86.1866 22.4548V16.0649H82.5108V22.4548C82.5108 24.3996 82.8955 25.7887 83.6649 26.6222C84.4128 27.4557 85.6951 27.8831 87.4903 27.8831C88.452 27.8831 89.3282 27.648 90.1403 27.1565V27.6907H93.8375V16.0649H90.1403Z" fill="black"/>
<path d="M96.0331 26.7718C96.9094 27.2206 97.7215 27.4984 98.4481 27.648C99.1533 27.819 100.051 27.8831 101.119 27.8831C102.551 27.8831 103.705 27.5411 104.56 26.8786C105.394 26.2161 105.821 25.2972 105.821 24.1218C105.821 23.0746 105.479 22.2625 104.817 21.6855C104.133 21.1085 103.086 20.6811 101.675 20.3819C100.82 20.1895 100.243 20.0399 99.944 19.8903C99.6448 19.7407 99.4952 19.5698 99.4952 19.3347C99.4952 18.9286 99.8799 18.7149 100.649 18.7149C101.611 18.7149 102.765 18.95 104.133 19.4415L105.372 16.7915C103.727 16.1718 102.167 15.8512 100.713 15.8512C99.3243 15.8512 98.2344 16.1931 97.4436 16.8556C96.6315 17.5395 96.2255 18.4371 96.2255 19.5484C96.2255 20.6597 96.5888 21.4932 97.3154 22.0274C98.042 22.5831 99.1106 23.0105 100.521 23.3311C101.333 23.502 101.867 23.6516 102.124 23.7798C102.38 23.9294 102.509 24.1004 102.509 24.3355C102.509 24.8057 102.081 25.0407 101.205 25.0407C100.115 25.0407 98.8541 24.7202 97.3795 24.1004L96.0331 26.7718Z" fill="black"/>
<path d="M108.142 27.6907H111.818V16.0649H108.142V27.6907ZM109.959 15.146C110.536 15.146 111.006 14.9536 111.412 14.5476C111.797 14.1415 111.989 13.65 111.989 13.073C111.989 12.496 111.797 12.0044 111.412 11.5984C111.006 11.1923 110.536 11 109.959 11C109.403 11 108.933 11.1923 108.527 11.5984C108.121 12.0044 107.907 12.496 107.907 13.073C107.907 13.65 108.121 14.1202 108.527 14.5262C108.933 14.9323 109.403 15.146 109.959 15.146Z" fill="black"/>
<path d="M121.03 15.8512C120.111 15.8512 119.213 16.0863 118.38 16.5778V16.0649H114.704V27.6907H118.38V19.8048C118.914 19.3347 119.576 19.0996 120.346 19.0996C121.051 19.0996 121.542 19.2706 121.863 19.6125C122.162 19.9758 122.312 20.5315 122.312 21.2794V27.6907H126.009V21.2794C126.009 19.3347 125.624 17.9242 124.876 17.0907C124.107 16.2573 122.825 15.8512 121.03 15.8512Z" fill="black"/>
<path d="M139.831 22.9036L139.852 22.1129C139.852 20.2536 139.361 18.7363 138.356 17.5823C137.352 16.4282 135.963 15.8512 134.189 15.8512C132.458 15.8512 131.026 16.4282 129.893 17.5823C128.761 18.7577 128.205 20.1895 128.205 21.8778C128.205 23.5661 128.761 24.998 129.893 26.152C131.026 27.3061 132.458 27.8831 134.189 27.8831C135.322 27.8831 136.369 27.6694 137.288 27.2206C138.207 26.7932 138.933 26.1948 139.468 25.4254L137.16 23.5234C136.882 23.9294 136.497 24.2714 136.006 24.5278C135.514 24.8057 135.044 24.9339 134.574 24.9339C133.933 24.9339 133.377 24.7629 132.907 24.3996C132.437 24.0577 132.095 23.5661 131.881 22.9036H139.831ZM131.881 20.7665C132.031 20.1681 132.308 19.6766 132.714 19.2919C133.12 18.9073 133.612 18.7149 134.189 18.7149C134.98 18.7149 135.557 18.9286 135.877 19.3347C136.198 19.7621 136.369 20.2323 136.369 20.7665H131.881Z" fill="black"/>
<path d="M141.549 26.7718C142.425 27.2206 143.237 27.4984 143.964 27.648C144.669 27.819 145.567 27.8831 146.635 27.8831C148.067 27.8831 149.221 27.5411 150.076 26.8786C150.91 26.2161 151.337 25.2972 151.337 24.1218C151.337 23.0746 150.995 22.2625 150.333 21.6855C149.649 21.1085 148.602 20.6811 147.191 20.3819C146.336 20.1895 145.759 20.0399 145.46 19.8903C145.161 19.7407 145.011 19.5698 145.011 19.3347C145.011 18.9286 145.396 18.7149 146.165 18.7149C147.127 18.7149 148.281 18.95 149.649 19.4415L150.888 16.7915C149.243 16.1718 147.683 15.8512 146.229 15.8512C144.84 15.8512 143.75 16.1931 142.96 16.8556C142.148 17.5395 141.741 18.4371 141.741 19.5484C141.741 20.6597 142.105 21.4932 142.831 22.0274C143.558 22.5831 144.627 23.0105 146.037 23.3311C146.849 23.502 147.383 23.6516 147.64 23.7798C147.896 23.9294 148.025 24.1004 148.025 24.3355C148.025 24.8057 147.597 25.0407 146.721 25.0407C145.631 25.0407 144.37 24.7202 142.896 24.1004L141.549 26.7718Z" fill="black"/>
<path d="M152.787 26.7718C153.663 27.2206 154.476 27.4984 155.202 27.648C155.907 27.819 156.805 27.8831 157.874 27.8831C159.305 27.8831 160.459 27.5411 161.314 26.8786C162.148 26.2161 162.575 25.2972 162.575 24.1218C162.575 23.0746 162.233 22.2625 161.571 21.6855C160.887 21.1085 159.84 20.6811 158.429 20.3819C157.574 20.1895 156.997 20.0399 156.698 19.8903C156.399 19.7407 156.249 19.5698 156.249 19.3347C156.249 18.9286 156.634 18.7149 157.403 18.7149C158.365 18.7149 159.519 18.95 160.887 19.4415L162.126 16.7915C160.481 16.1718 158.921 15.8512 157.468 15.8512C156.078 15.8512 154.988 16.1931 154.198 16.8556C153.386 17.5395 152.98 18.4371 152.98 19.5484C152.98 20.6597 153.343 21.4932 154.07 22.0274C154.796 22.5831 155.865 23.0105 157.275 23.3311C158.087 23.502 158.622 23.6516 158.878 23.7798C159.134 23.9294 159.263 24.1004 159.263 24.3355C159.263 24.8057 158.835 25.0407 157.959 25.0407C156.869 25.0407 155.608 24.7202 154.134 24.1004L152.787 26.7718Z" fill="black"/>
</svg>
