<svg width="48" height="48" viewBox="0 0 48 48" fill="none" xmlns="http://www.w3.org/2000/svg">
<path d="M22.6991 42.4063C24.5128 42.6752 29.4273 43.3207 34.5418 40.0607C40.7189 36.1241 45.8924 27.3188 44.0375 22.3409C42.1419 17.2542 34.7373 21.0771 25.4091 14.6371C17.5295 9.19629 16.862 2.35908 13.0845 3.1735C8.64955 4.12965 5.08769 14.5182 5.84141 22.8597C5.92142 23.7438 6.25927 26.9242 7.91898 30.5163C8.42359 31.608 12.9308 40.9598 22.6991 42.4063Z" fill="#FA4B1E"/>
<path d="M40.4062 34.825C41.5073 33.3607 44.4254 29.3613 44.3647 23.6868C44.2919 16.8337 39.8912 8.97543 35.06 8.6641C30.123 8.34612 29.5044 16.2165 19.8571 21.8023C11.7072 26.5203 5.99325 24.4676 4.78277 28.0458C3.36162 32.2468 9.7998 39.321 16.7411 41.8778C17.4769 42.1487 20.1482 43.0799 23.792 43.0269C24.8995 43.0106 34.4772 42.7117 40.4062 34.825Z" fill="#260661"/>
<path fill-rule="evenodd" clip-rule="evenodd" d="M28.1811 42.4569C25.7173 42.8283 23.7181 42.5581 22.6986 42.407C12.9304 40.9605 8.42313 31.6086 7.91852 30.5169C7.20458 28.9717 6.73523 27.5027 6.42578 26.2599C7.30184 25.8372 8.46509 25.6029 9.87582 25.3189C12.4562 24.7993 15.8645 24.1131 19.8576 21.8015C23.1444 19.8984 25.3832 17.7302 27.1018 15.7109C31.1413 18.0485 34.7565 18.587 37.6315 19.0152C40.822 19.4905 43.1011 19.83 44.037 22.3416C44.1984 22.7748 44.3066 23.2369 44.3656 23.7223C44.3807 25.5115 44.1 27.1336 43.6743 28.5615C42.2875 32.5224 39.1182 36.7731 35.4754 39.424C32.9325 41.0798 30.307 41.9738 28.1811 42.4569Z" fill="#7E3FF3"/>
</svg>
