<svg width="231" height="33" viewBox="0 0 231 33" fill="none" xmlns="http://www.w3.org/2000/svg">
<path fill-rule="evenodd" clip-rule="evenodd" d="M63.352 25.8719C63.3873 23.6785 63.3558 21.451 63.3558 19.2543C63.3558 17.3341 63.1271 18.0029 64.1792 16.8312C66.436 14.3177 72.1092 12.7335 73.9562 17.4883C74.5689 19.0683 74.568 21.519 74.2383 23.2053C73.4806 27.0872 70.5968 28.8851 67.1783 28.0856C66.0652 27.8251 64.103 26.8501 63.352 25.8719ZM63.1671 29.4252C63.4607 29.5496 64.0544 30.0908 64.3908 30.3141C66.8648 31.9589 69.9659 32.3661 72.8097 32.0089C74.0029 31.86 74.9158 31.523 76.0032 31.1147C77.6681 30.4906 79.5132 28.7437 80.4948 27.1382C81.8166 24.9767 82.1578 22.863 82.1587 20.1411C82.1606 15.0035 79.5885 11.2269 75.1522 10.1329C70.8741 9.07707 65.8403 10.0808 63.3978 14.0732L63.3539 0.883789L56.4408 2.87948C55.9214 4.22872 56.1549 5.94584 56.1549 7.41523V21.9177C56.1549 25.1159 56.0805 28.4258 56.1587 31.608L60.6931 31.6293C61.1477 31.6187 62.0731 31.3359 62.3866 31.0073C62.8126 30.564 62.9022 29.8814 63.1671 29.4252Z" fill="white"/>
<path fill-rule="evenodd" clip-rule="evenodd" d="M7.5231 16.3123C7.39825 14.0944 7.55645 9.32578 7.60982 6.89948C8.32744 6.63899 12.7389 6.82824 13.9283 7.295C15.8353 8.04352 17.1676 8.97491 16.9741 11.5575C16.8378 13.3788 15.1853 15.0151 13.7548 15.5276C11.6744 16.2729 9.78173 16.4973 7.5231 16.3123ZM0.126783 31.6505L7.48593 31.6484L7.49927 20.3951C9.02314 20.1697 11.0426 20.545 12.5731 20.343C14.116 20.1399 15.6056 20.1038 17.0989 19.5807C19.9999 18.5642 21.6791 17.8763 23.528 15.0917C25.0585 12.7866 25.1528 8.3678 23.4946 6.08929C21.6886 3.60877 18.5761 3.26535 15.9124 2.92936C14.2409 2.71778 7.73085 2.81772 5.58849 2.81772C4.23712 2.81772 2.19482 2.55298 1.1608 3.66087C-0.0962217 5.00905 0.0400589 6.41677 0.0400589 8.30188C0.0400589 9.77978 -0.0933624 30.7893 0.126783 31.6505Z" fill="white"/>
<path fill-rule="evenodd" clip-rule="evenodd" d="M34.2657 10.279C32.7247 10.2503 29.9696 10.0206 28.6611 10.6639C26.7465 11.6048 26.9895 13.8057 26.9895 15.4059C26.9895 17.6089 26.9895 19.8119 26.9895 22.016C26.9895 23.7725 26.8399 26.5709 27.4889 28.0658C28.1284 29.5384 29.1957 30.693 30.5566 31.2757C32.0405 31.9104 34.0389 32.3262 35.7448 32.0859C37.344 31.8615 38.9898 31.5394 40.4098 30.6707C41.0283 30.2911 41.6249 29.8765 42.1586 29.3629C42.3902 29.1418 43.5643 27.9148 43.6672 27.8734L43.6901 31.5936L49.755 30.9376C50.3726 30.4506 50.9568 29.5522 50.9739 28.6293C51.0359 25.2121 50.9701 21.0527 50.9701 17.5759C50.9701 15.1869 51.0425 12.6542 50.9606 10.2822L46.1831 10.3704C44.8823 10.7085 44.0522 11.5665 43.752 13.0019C43.5967 13.7387 43.6777 22.1744 43.6939 23.5992L39.5807 26.9717C37.8424 27.6352 35.5142 27.9797 34.5593 25.8107C34.0256 24.5975 34.2772 19.8513 34.2772 18.1671C34.2772 15.6068 34.3734 12.8116 34.2657 10.279Z" fill="white"/>
<path fill-rule="evenodd" clip-rule="evenodd" d="M133.277 27.0763C132.914 27.0327 131.566 27.4835 131.058 27.5887C130.386 27.728 129.472 27.9662 128.796 28.0161C127.103 28.1437 125.46 28.2394 123.855 27.7153C117.883 25.7589 118.392 18.8234 120.332 16.4226C124.474 11.2947 132.008 15.2371 133.046 14.8193L133.088 10.7078L129.516 10.0486C126.31 9.50631 121.385 9.72002 118.45 10.8694C114.05 12.5929 111.273 15.5753 111.3 21.1275C111.32 25.205 112.997 27.728 115.879 29.8109C118.451 31.6694 123.046 32.2489 126.145 32.117C127.454 32.0607 132.3 31.4759 133.275 30.973L133.277 27.0763Z" fill="white"/>
<path fill-rule="evenodd" clip-rule="evenodd" d="M93.2893 0.874015C91.1364 0.85594 87.3435 0.32326 86.3504 2.89097C85.7691 4.39757 86.0283 10.2581 86.0283 12.2485C86.0283 13.5595 85.9063 30.8423 86.1065 31.6461L93.3045 31.6302L93.2893 0.874015Z" fill="white"/>
<path fill-rule="evenodd" clip-rule="evenodd" d="M99.7435 31.6231C100.742 31.7198 102.027 31.6412 103.058 31.6422C107.549 31.6465 106.929 28.1495 106.929 24.9747C106.929 20.1614 107.066 15.0941 106.922 10.3106L99.7178 10.2744L99.7435 31.6231Z" fill="white"/>
<path fill-rule="evenodd" clip-rule="evenodd" d="M99.7324 6.77834L106.908 6.77196L106.923 1.92681C106.172 1.73862 104.208 1.85026 103.326 1.85026C102.129 1.85026 100.936 1.85451 99.7314 1.86301L99.7324 6.77834Z" fill="white"/>
<path d="M158.763 17.7335C160.086 16.4109 161.756 15.5756 163.88 15.5756C167.221 15.5756 169.518 17.5943 169.518 21.4925V32.1778H172.407V21.4925C172.407 15.7148 169.344 13 164.297 13C161.722 13 159.424 14.0442 157.858 15.8192C156.536 13.9397 154.378 13 151.698 13C149.261 13 147.138 13.7657 145.607 15.1579V13.3481H142.718V32.1778H145.607V17.6987C147.034 16.3761 148.878 15.5756 151.245 15.5756C154.308 15.5756 156.396 17.6291 156.396 21.4925V32.1778H159.285V21.4925C159.285 19.9611 159.111 18.7429 158.763 17.7335Z" fill="white"/>
<path d="M185.36 13C179.687 13 175.093 17.3507 175.093 22.7107C175.093 28.036 179.687 32.3866 185.36 32.3866C190.999 32.3866 195.593 28.036 195.593 22.7107C195.593 17.3507 190.999 13 185.36 13ZM185.36 29.811C181.253 29.811 177.947 26.6089 177.947 22.7107C177.947 18.7777 181.253 15.5756 185.36 15.5756C189.432 15.5756 192.739 18.7777 192.739 22.7107C192.739 26.6089 189.432 29.811 185.36 29.811Z" fill="white"/>
<path d="M201.641 13.3481H198.752V32.1778H201.641V22.6411C201.641 19.0562 203.659 15.8192 207.244 15.8192C208.045 15.8192 208.95 15.9933 209.924 16.3761L210.133 13.5569C209.333 13.174 208.532 13 207.836 13C204.947 13.0348 202.824 14.6359 201.641 17.0374V13.3481Z" fill="white"/>
<path d="M230.07 23.6157C230.07 23.6157 230.105 23.1632 230.105 22.8499C230.105 17.0722 226.624 13 220.986 13C215.347 13 211.414 17.3507 211.414 22.7107C211.414 28.036 215.347 32.3866 220.986 32.3866C224.606 32.3866 227.634 30.9248 229.374 28.6277L227.46 27.0962C225.998 28.8713 223.84 29.8458 221.473 29.8458C217.958 29.8458 214.79 27.305 214.303 23.6157H230.07ZM220.986 15.3668C224.919 15.3668 227.007 17.9424 227.286 21.3533H214.338C214.79 17.9772 217.401 15.3668 220.986 15.3668Z" fill="white"/>
</svg>
