<svg width="245" height="41" viewBox="0 0 245 41" fill="none" xmlns="http://www.w3.org/2000/svg">
<mask id="mask0_1681_7351" style="mask-type:alpha" maskUnits="userSpaceOnUse" x="0" y="0" width="245" height="41">
<rect width="245" height="41" fill="#D9D9D9"/>
</mask>
<g mask="url(#mask0_1681_7351)">
<path d="M6.59853 29.4522C4.14194 29.4522 1.94243 28.9951 0 28.081L1.25686 24.9674C2.79938 25.9006 4.54185 26.3671 6.48427 26.3671C8.2934 26.3671 9.19796 25.8149 9.19796 24.7103C9.19796 24.2533 8.95991 23.901 8.48383 23.6534C8.00774 23.4059 7.09366 23.1297 5.74158 22.8251C3.85629 22.4061 2.4566 21.8348 1.54251 21.1111C0.647475 20.3875 0.199956 19.3306 0.199956 17.9404C0.199956 16.3789 0.752214 15.1887 1.85673 14.3698C2.98029 13.5509 4.50376 13.1415 6.42714 13.1415C8.40765 13.1415 10.4453 13.5509 12.5401 14.3698L11.2546 17.5119C9.75021 16.7121 8.13153 16.3122 6.39858 16.3122C4.87511 16.3122 4.11337 16.7597 4.11337 17.6548C4.11337 18.1309 4.33237 18.4927 4.77037 18.7402C5.22741 18.9878 6.13197 19.2735 7.48405 19.5972C9.44552 20.0733 10.8833 20.6636 11.7974 21.3682C12.7305 22.0538 13.1971 23.0441 13.1971 24.339C13.1971 27.7478 10.9976 29.4522 6.59853 29.4522Z" fill="black"/>
<path d="M22.7463 29.395C20.4611 29.395 18.6329 28.6618 17.2618 27.1955C15.8907 25.7101 15.2051 23.7201 15.2051 21.2254C15.2051 18.7498 15.8811 16.7788 17.2332 15.3124C18.5853 13.8271 20.3659 13.0844 22.5749 13.0844C24.6125 13.0844 26.2122 13.6557 27.3738 14.7983V13.4557H31.2587V29.0522H27.431V27.5383C26.4026 28.7761 24.8411 29.395 22.7463 29.395ZM23.6032 25.853C25.3933 25.853 26.6692 25.1674 27.431 23.7963V18.626C27.0501 17.9976 26.4978 17.5119 25.7742 17.1692C25.0505 16.8073 24.2983 16.6264 23.5175 16.6264C22.2416 16.6264 21.2133 17.0359 20.4325 17.8547C19.6517 18.6546 19.2613 19.7781 19.2613 21.2254C19.2613 22.6537 19.6517 23.7867 20.4325 24.6247C21.2133 25.4435 22.2702 25.853 23.6032 25.853Z" fill="black"/>
<path d="M35.6336 29.0522V16.9692H33.4626V13.4557H35.6336V12.1988C35.6336 10.4849 36.0621 9.18999 36.919 8.31399C37.795 7.438 39.0233 7 40.6039 7C41.8798 7 42.9558 7.19043 43.8318 7.5713V10.6278C43.1272 10.3992 42.4321 10.285 41.7465 10.285C40.9657 10.285 40.3944 10.4754 40.0326 10.8563C39.6898 11.2181 39.5184 11.8465 39.5184 12.7416V13.4557H43.6889V16.9692H39.5756V29.0522H35.6336Z" fill="black"/>
<path d="M60.6905 21.254C60.6905 21.8253 60.681 22.2157 60.662 22.4251H48.5504C48.7598 23.5868 49.255 24.4818 50.0358 25.1103C50.8356 25.7387 51.8734 26.0529 53.1493 26.0529C55.0918 26.0529 56.5962 25.3864 57.6626 24.0534L60.1478 26.1672C58.6053 28.3 56.1772 29.3665 52.8637 29.3665C50.2738 29.3665 48.2361 28.6333 46.7508 27.1669C45.2844 25.7006 44.5513 23.7106 44.5513 21.1968C44.5513 18.7402 45.3035 16.7693 46.8079 15.2839C48.3123 13.7794 50.2643 13.0272 52.6637 13.0272C55.2727 13.0272 57.2627 13.7794 58.6338 15.2839C60.005 16.7693 60.6905 18.7593 60.6905 21.254ZM52.6637 16.3122C51.6164 16.3122 50.7308 16.5883 50.0072 17.1406C49.2835 17.6738 48.8075 18.4832 48.5789 19.5686H56.8342C56.7009 18.6355 56.2915 17.8643 55.6059 17.2549C54.9204 16.6264 53.9396 16.3122 52.6637 16.3122Z" fill="black"/>
<path d="M68.7459 29.4236C67.032 29.4236 65.7846 29.0046 65.0039 28.1667C64.2421 27.3288 63.8612 26.0148 63.8612 24.2247V16.9692H61.6332V13.4557H63.8612V7.39991H67.7461V13.4557H72.3451V16.9692H67.7461V23.5677C67.7461 24.4628 67.8889 25.1007 68.1746 25.4816C68.4793 25.8625 69.022 26.0529 69.8028 26.0529C70.6978 26.0529 71.5357 25.8815 72.3165 25.5387V28.9951C71.3643 29.2808 70.1741 29.4236 68.7459 29.4236Z" fill="black"/>
<path d="M85.6649 13.4557H89.8639L83.4654 29.2236C83.0083 30.3853 82.4942 31.3374 81.9229 32.0801C81.3516 32.8228 80.7422 33.356 80.0947 33.6798C79.4472 34.0226 78.8474 34.2511 78.2951 34.3653C77.7619 34.4796 77.1334 34.5367 76.4098 34.5367C75.4005 34.5367 74.5531 34.4225 73.8675 34.194V30.7947C74.7054 31.0613 75.4576 31.1946 76.1241 31.1946C77.7428 31.1946 78.914 30.49 79.6376 29.0808L72.6392 13.4557H77.0382L81.4658 24.339L85.6649 13.4557Z" fill="black"/>
<path d="M92.3393 29.0522V13.6842H93.8818V15.6838C95.6719 14.1794 97.6143 13.4271 99.7091 13.4271C101.766 13.4271 103.308 13.9508 104.337 14.9982C105.365 16.0456 105.879 17.769 105.879 20.1685V29.0522H104.337V20.2828C104.337 18.3594 103.927 16.9883 103.108 16.1694C102.289 15.3505 101.08 14.9411 99.4806 14.9411C97.5381 14.9411 95.6719 15.7409 93.8818 17.3406V29.0522H92.3393Z" fill="black"/>
<path d="M124.591 21.3968V21.8538H110.737C110.871 23.682 111.537 25.1293 112.737 26.1957C113.936 27.2622 115.422 27.7954 117.193 27.7954C119.611 27.7954 121.487 26.9765 122.82 25.3388L123.991 26.2814C122.449 28.281 120.154 29.2808 117.107 29.2808C114.727 29.2808 112.794 28.5476 111.309 27.0812C109.842 25.6149 109.109 23.6915 109.109 21.3111C109.109 18.9878 109.833 17.093 111.28 15.6267C112.746 14.1603 114.603 13.4271 116.85 13.4271C119.25 13.4271 121.135 14.1603 122.506 15.6267C123.896 17.093 124.591 19.0164 124.591 21.3968ZM116.879 14.9125C115.26 14.9125 113.879 15.4267 112.737 16.455C111.594 17.4643 110.937 18.7974 110.766 20.4542H122.935C122.82 18.7974 122.22 17.4643 121.135 16.455C120.068 15.4267 118.65 14.9125 116.879 14.9125Z" fill="black"/>
<path d="M133.016 29.3093C131.378 29.3093 130.245 28.9094 129.617 28.1096C129.007 27.3098 128.703 26.0148 128.703 24.2247V15.141H125.989V13.6842H128.703V7.51417H130.245V13.6842H135.872V15.141H130.245V24.0819C130.245 25.434 130.455 26.3957 130.874 26.967C131.293 27.5192 132.073 27.7954 133.216 27.7954C134.206 27.7954 135.139 27.6335 136.015 27.3098V28.8808C135.196 29.1665 134.197 29.3093 133.016 29.3093Z" fill="black"/>
</g>
</svg>
