<svg width="48" height="48" viewBox="0 0 48 48" fill="none" xmlns="http://www.w3.org/2000/svg">
<mask id="mask0_1681_7604" style="mask-type:alpha" maskUnits="userSpaceOnUse" x="0" y="0" width="48" height="48">
<rect width="48" height="48" fill="#D9D9D9"/>
</mask>
<g mask="url(#mask0_1681_7604)">
<path d="M29.5371 20.7145C22.3721 17.9447 18.6726 12.1599 17.4545 9.74714C11.9534 -1.14875 -2.57337 20.2326 7.50427 36.179C12.4254 43.9658 23.1403 39.25 25.5774 37.6047C29.8414 34.7257 39.183 24.4435 29.5371 20.7145Z" fill="#30A44D"/>
<path d="M42.4505 30.1482C36.8835 22.0266 36.7655 13.3842 37.0482 10.0195C38.3248 -5.17537 9.94919 5.94065 10.1515 29.6754C10.2503 41.2655 24.1824 44.361 27.7139 44.48C33.8926 44.6876 49.9451 41.0819 42.4505 30.1482Z" fill="#EC4115"/>
</g>
</svg>
