<svg width="256" height="40" viewBox="0 0 256 40" fill="none" xmlns="http://www.w3.org/2000/svg">
<path d="M13.2887 12.6638H0V15.9477H4.68497V28.098H8.58182V15.9477H13.2887V12.6638Z" fill="black"/>
<path d="M15.0242 28.098H18.7897V16.1885H15.0242V28.098ZM16.885 15.2471C17.4761 15.2471 17.9577 15.0501 18.3737 14.6341C18.7678 14.2182 18.9648 13.7147 18.9648 13.1236C18.9648 12.5325 18.7678 12.0289 18.3737 11.613C17.9577 11.197 17.4761 11 16.885 11C16.3158 11 15.8342 11.197 15.4182 11.613C15.0023 12.0289 14.7833 12.5325 14.7833 13.1236C14.7833 13.7147 15.0023 14.1963 15.4182 14.6122C15.8342 15.0282 16.3158 15.2471 16.885 15.2471Z" fill="black"/>
<path d="M29.6486 23.61C29.1232 24.5076 28.357 24.9673 27.328 24.9673C26.5399 24.9673 25.8612 24.6827 25.3139 24.1354C24.7666 23.5881 24.482 22.9095 24.482 22.1432C24.482 21.3551 24.7666 20.6764 25.3139 20.1291C25.8612 19.5818 26.5399 19.2972 27.328 19.2972C28.357 19.2972 29.1232 19.757 29.6486 20.6545L32.0568 18.4215C31.5095 17.6553 30.8089 17.0642 29.9989 16.6263C29.1889 16.1885 28.2913 15.9696 27.328 15.9696C25.511 15.9696 23.9785 16.5607 22.7087 17.7647C21.4171 18.9688 20.7822 20.4137 20.7822 22.1432C20.7822 23.8508 21.4171 25.2957 22.7087 26.4998C23.9785 27.7039 25.511 28.295 27.328 28.295C28.2694 28.295 29.1451 28.0761 29.977 27.6163C30.787 27.1785 31.4657 26.5655 32.013 25.7993L29.6486 23.61Z" fill="black"/>
<path d="M41.5863 20.8735L45.7677 16.1885H41.4112L37.58 20.3043V11.5911H33.8145V28.098H37.58V25.3614L39.1125 23.807L41.6958 28.098H45.8553L41.5863 20.8735Z" fill="black"/>
<path d="M57.7701 23.1941L57.792 22.384C57.792 20.4794 57.2884 18.925 56.2595 17.7429C55.2306 16.5607 53.8076 15.9696 51.9905 15.9696C50.2172 15.9696 48.7504 16.5607 47.5901 17.7429C46.4298 18.9469 45.8606 20.4137 45.8606 22.1432C45.8606 23.8727 46.4298 25.3395 47.5901 26.5217C48.7504 27.7039 50.2172 28.295 51.9905 28.295C53.1508 28.295 54.2235 28.0761 55.1649 27.6163C56.1063 27.1785 56.8506 26.5655 57.3979 25.7774L55.0335 23.8289C54.7489 24.2449 54.3549 24.5952 53.8513 24.8579C53.3478 25.1425 52.8662 25.2738 52.3845 25.2738C51.7278 25.2738 51.1586 25.0987 50.6769 24.7265C50.1953 24.3762 49.845 23.8727 49.6261 23.1941H57.7701ZM49.6261 21.0048C49.7794 20.3918 50.064 19.8883 50.4799 19.4942C50.8959 19.1002 51.3994 18.9032 51.9905 18.9032C52.8005 18.9032 53.3916 19.1221 53.72 19.538C54.0484 19.9759 54.2235 20.4575 54.2235 21.0048H49.6261Z" fill="black"/>
<path d="M67.1706 19.2315V16.1885H64.2371V11.5911H60.4716V16.1885H58.9172V19.2315H60.4716V24.4419C60.4716 25.6898 60.8218 26.6312 61.5224 27.2879C62.2011 27.9666 63.0768 28.295 64.1495 28.295C65.4849 28.295 66.492 28.1417 67.1269 27.8134V25.0768C67.0612 25.0768 66.886 25.0768 66.6014 25.0987C66.2949 25.1206 66.0541 25.1425 65.9009 25.1425C65.1784 25.1425 64.7187 24.9673 64.5217 24.639C64.3246 24.3106 64.2371 23.61 64.2371 22.5154V19.2315H67.1706Z" fill="black"/>
<path d="M68.4137 27.1566C69.3113 27.6163 70.1432 27.9009 70.8876 28.0542C71.61 28.2293 72.5295 28.295 73.6241 28.295C75.0909 28.295 76.2731 27.9447 77.1488 27.266C78.0026 26.5874 78.4404 25.646 78.4404 24.4419C78.4404 23.3692 78.0901 22.5373 77.4115 21.9462C76.7109 21.3551 75.6382 20.9173 74.1933 20.6108C73.3176 20.4137 72.7265 20.2605 72.42 20.1072C72.1135 19.954 71.9603 19.7788 71.9603 19.538C71.9603 19.1221 72.3543 18.9032 73.1425 18.9032C74.1276 18.9032 75.3098 19.144 76.7109 19.6475L77.9807 16.9328C76.295 16.298 74.6968 15.9696 73.2082 15.9696C71.7851 15.9696 70.6686 16.3198 69.8586 16.9985C69.0267 17.6991 68.6107 18.6185 68.6107 19.757C68.6107 20.8954 68.9829 21.7492 69.7273 22.2965C70.4716 22.8657 71.5662 23.3035 73.0111 23.6319C73.843 23.807 74.3903 23.9603 74.653 24.0916C74.9158 24.2449 75.0471 24.42 75.0471 24.6609C75.0471 25.1425 74.6093 25.3833 73.7117 25.3833C72.5952 25.3833 71.3035 25.0549 69.7929 24.42L68.4137 27.1566Z" fill="black"/>
</svg>
