<svg width="48" height="48" viewBox="0 0 48 48" fill="none" xmlns="http://www.w3.org/2000/svg">
<path d="M27.8533 43.1182C29.6665 42.8453 34.555 42.0264 38.4935 37.414C43.2504 31.844 45.6246 21.9111 42.396 17.6927C39.0965 13.382 33.1324 19.202 22.3294 15.7694C13.2037 12.8689 10.5672 6.52533 7.19258 8.40817C3.23071 10.6187 2.86043 21.5947 6.01906 29.3517C6.35397 30.1738 7.60653 33.1166 10.2436 36.0668C11.0452 36.9634 18.0888 44.5897 27.8533 43.1182Z" fill="#61ADDF"/>
<path d="M42.5705 30.6919C43.1957 28.9697 44.8175 24.2921 43.1011 18.8831C41.0286 12.3504 34.5235 6.12135 29.8122 7.23556C24.9978 8.37431 26.7063 16.0819 19.1127 24.2432C12.6975 31.1371 6.63308 30.8439 6.52121 34.6197C6.38986 39.0526 14.6144 43.9364 21.9999 44.3529C22.7827 44.3969 25.6095 44.5068 29.0787 43.3912C30.1331 43.052 39.2053 39.967 42.5705 30.6919V30.6919Z" fill="#ACCFED"/>
<path fill-rule="evenodd" clip-rule="evenodd" d="M33.1103 41.564C30.8627 42.6392 28.8718 42.9651 27.8526 43.1185C18.0881 44.59 11.0446 36.9636 10.2429 36.0671C9.10857 34.798 8.23039 33.5303 7.57124 32.4322C8.2855 31.7718 9.32952 31.2079 10.5956 30.524C12.9115 29.273 15.9705 27.6206 19.1137 24.2429C21.7008 21.4624 23.2082 18.7345 24.2616 16.3011C28.8079 17.356 32.4226 16.8145 35.2973 16.3838C38.4874 15.9059 40.7662 15.5645 42.3953 17.6929C42.6762 18.06 42.9148 18.4704 43.113 18.9173C43.6504 20.624 43.856 22.2574 43.8662 23.7474C43.6975 27.9406 41.9089 32.9319 39.1999 36.5316C37.2519 38.8584 35.0022 40.4807 33.1103 41.564Z" fill="#9F2D25"/>
</svg>
